<svg id="Capa_1" enable-background="new 0 0 512 512" height="512" viewBox="0 0 512 512" width="512" xmlns="http://www.w3.org/2000/svg"><g><g><g><path d="m90.333 239.433v66.267c0 18.299 74.172 33.133 165.667 33.133s165.667-14.834 165.667-33.133v-66.267z" fill="#9facba"/><path d="m398.667 239.433v66.267c0 17.526-68.038 31.871-154.167 33.052 3.801.052 7.633.081 11.5.081 91.495 0 165.667-14.834 165.667-33.133v-66.267z" fill="#8e9dad"/><ellipse cx="256" cy="239.433" fill="#c5d3dd" rx="165.667" ry="33.133"/><path d="m256 206.3c-3.867 0-7.699.029-11.5.081 86.129 1.181 154.167 15.527 154.167 33.053s-68.038 31.871-154.167 33.053c3.801.052 7.633.081 11.5.081 91.495 0 165.667-14.834 165.667-33.133 0-18.301-74.172-33.135-165.667-33.135z" fill="#abc1d1"/></g><g><path d="m461.013 496.217h-155.313-99.399-155.314v-33.134h155.312l33.135-8.282v-98.801h33.133v98.799l33.133 8.284h155.313z" fill="#6aabf0"/><path d="m297.7 504.5h-83.4c-4.418 0-8-3.582-8-8v-33.7c0-4.418 3.582-8 8-8h83.4c4.418 0 8 3.582 8 8v33.7c0 4.418-3.582 8-8 8z" fill="#9facba"/><circle cx="479.65" cy="479.65" fill="#f5f5f5" r="24.85"/><path d="m479.65 504.5c-4.151 0-8.061-1.023-11.5-2.823 7.933-4.15 13.35-12.454 13.35-22.027 0-9.574-5.417-17.877-13.35-22.027 3.439-1.8 7.349-2.823 11.5-2.823 13.724 0 24.85 11.126 24.85 24.85s-11.126 24.85-24.85 24.85z" fill="#e0e0e0"/><circle cx="32.35" cy="479.65" fill="#f5f5f5" r="24.85"/><path d="m32.35 504.5c-4.151 0-8.061-1.023-11.5-2.823 7.933-4.15 13.35-12.454 13.35-22.027 0-9.574-5.417-17.877-13.35-22.027 3.439-1.8 7.349-2.823 11.5-2.823 13.724 0 24.85 11.126 24.85 24.85s-11.126 24.85-24.85 24.85z" fill="#e0e0e0"/><path d="m297.7 454.8h-23c4.418 0 8 3.582 8 8v33.7c0 4.418-3.582 8-8 8h23c4.418 0 8-3.582 8-8v-33.7c0-4.418-3.582-8-8-8z" fill="#8e9dad"/></g><path d="m355.967 388.533h-199.934c-8.837 0-16-7.163-16-16v-83.967c0-8.837 7.163-16 16-16h199.933c8.836 0 16 7.163 16 16v83.967c.001 8.837-7.163 16-15.999 16z" fill="#6ed5a1"/><path d="m355.967 272.567h-23c8.837 0 16 7.163 16 16v83.967c0 8.837-7.163 16-16 16h23c8.836 0 16-7.163 16-16v-83.967c0-8.837-7.164-16-16-16z" fill="#46cc8d"/><g><path d="m90.333 140.033v66.267c0 18.299 74.172 33.133 165.667 33.133s165.667-14.834 165.667-33.133v-66.267z" fill="#9facba"/><path d="m398.667 140.033v66.267c0 17.526-68.038 31.871-154.167 33.052 3.801.052 7.633.081 11.5.081 91.495 0 165.667-14.834 165.667-33.133v-66.267z" fill="#8e9dad"/><ellipse cx="256" cy="140.033" fill="#c5d3dd" rx="165.667" ry="33.133"/><path d="m256 106.9c-3.867 0-7.699.029-11.5.081 86.129 1.181 154.167 15.527 154.167 33.052 0 17.526-68.038 31.871-154.167 33.053 3.801.052 7.633.081 11.5.081 91.495 0 165.667-14.834 165.667-33.133 0-18.3-74.172-33.134-165.667-33.134z" fill="#abc1d1"/></g><g><path d="m90.333 40.633v66.267c0 18.299 74.172 33.133 165.667 33.133s165.667-14.834 165.667-33.133v-66.267z" fill="#9facba"/><path d="m398.667 40.633v66.267c0 17.526-68.038 31.871-154.167 33.052 3.801.052 7.633.081 11.5.081 91.495 0 165.667-14.834 165.667-33.133v-66.267z" fill="#8e9dad"/><ellipse cx="256" cy="40.633" fill="#c5d3dd" rx="165.667" ry="33.133"/><path d="m256 7.5c-3.867 0-7.699.029-11.5.081 86.129 1.181 154.167 15.527 154.167 33.053s-68.038 31.871-154.167 33.053c3.801.052 7.633.081 11.5.081 91.495 0 165.667-14.834 165.667-33.133 0-18.301-74.172-33.135-165.667-33.135z" fill="#abc1d1"/></g></g><g><path d="m479.65 447.3c-8.29 0-15.859 3.137-21.589 8.283h-146.655c-2.601-4.919-7.765-8.283-13.706-8.283h-17.634v-51.267h75.9c12.958 0 23.5-10.542 23.5-23.5v-37.059c33.86-7.303 49.7-16.818 49.7-29.774v-66.267c0-6.251-3.813-11.712-11.526-16.514 7.767-4.819 11.526-10.31 11.526-16.62v-66.267c0-6.251-3.812-11.711-11.526-16.513 7.766-4.819 11.526-10.31 11.526-16.62v-66.266c0-13.558-17.334-23.34-54.552-30.783-31.759-6.352-73.884-9.85-118.614-9.85s-86.855 3.498-118.615 9.85c-37.218 7.443-54.552 17.226-54.552 30.783v66.267c0 6.31 3.76 11.801 11.526 16.62-7.713 4.802-11.526 10.262-11.526 16.513v66.267c0 6.31 3.76 11.801 11.526 16.62-7.714 4.802-11.526 10.262-11.526 16.514v66.266c0 12.956 15.841 22.471 49.7 29.773v37.06c0 12.958 10.542 23.5 23.5 23.5h75.9v51.267h-17.633c-5.941 0-11.105 3.364-13.706 8.283h-146.655c-5.73-5.146-13.299-8.283-21.589-8.283-17.838 0-32.35 14.512-32.35 32.35s14.512 32.35 32.35 32.35c8.29 0 15.859-3.138 21.59-8.283h146.654c2.601 4.919 7.765 8.283 13.706 8.283h83.4c5.941 0 11.105-3.364 13.706-8.283h146.654c5.731 5.146 13.3 8.283 21.59 8.283 17.838 0 32.35-14.512 32.35-32.35s-14.512-32.35-32.35-32.35zm-166.45 23.283h135.402c-.842 2.879-1.303 5.92-1.303 9.067s.46 6.188 1.302 9.066h-135.401zm66.267-150.485v-31.532c0-7.066-3.139-13.408-8.09-17.72 1.09-.207 2.171-.417 3.238-.63 17.485-3.497 30.58-7.51 39.552-12.189v47.58c-.673 2.019-8.481 8.434-34.7 14.491zm-281.634-113.89v-47.58c8.972 4.678 22.067 8.692 39.552 12.189 31.761 6.352 73.886 9.851 118.615 9.851s86.854-3.498 118.615-9.851c17.485-3.497 30.58-7.51 39.552-12.189v47.58c-.768 2.307-10.645 10.148-45.64 16.779-30.445 5.769-70.408 8.946-112.527 8.946s-82.082-3.178-112.527-8.946c-34.995-6.632-44.872-14.472-45.64-16.779zm0-99.399v-47.581c8.972 4.678 22.067 8.691 39.552 12.188 31.76 6.353 73.885 9.851 118.615 9.851s86.855-3.498 118.615-9.851c17.485-3.497 30.58-7.51 39.552-12.188v47.581c-.768 2.307-10.645 10.147-45.64 16.778-30.445 5.77-70.408 8.946-112.527 8.946s-82.082-3.177-112.527-8.946c-34.995-6.631-44.872-14.472-45.64-16.778zm45.64-82.863c30.445-5.769 70.408-8.946 112.527-8.946s82.082 3.177 112.527 8.946c34.545 6.546 44.614 14.271 45.605 16.687-.991 2.416-11.06 10.141-45.605 16.688-30.444 5.768-70.407 8.946-112.527 8.946s-82.083-3.178-112.528-8.946c-34.545-6.547-44.613-14.271-45.604-16.688.99-2.416 11.06-10.141 45.605-16.687zm-6.088 113.738c31.76 6.352 73.885 9.85 118.615 9.85s86.855-3.498 118.615-9.85c9.602-1.92 17.869-3.998 24.867-6.254 11.922 4.444 14.28 7.936 14.642 8.622-1.036 2.438-11.143 10.14-45.598 16.669-30.445 5.769-70.408 8.946-112.527 8.946s-82.082-3.178-112.527-8.946c-34.455-6.529-44.562-14.231-45.598-16.669.362-.686 2.721-4.178 14.642-8.622 7 2.256 15.267 4.333 24.869 6.254zm0 99.399c31.761 6.353 73.886 9.851 118.615 9.851s86.854-3.498 118.615-9.851c9.601-1.92 17.868-3.997 24.866-6.253 11.923 4.444 14.281 7.937 14.644 8.623-1.035 2.437-11.141 10.139-45.598 16.668-30.445 5.77-70.408 8.946-112.527 8.946s-82.082-3.177-112.527-8.946c-34.457-6.529-44.562-14.231-45.598-16.668.362-.686 2.721-4.178 14.644-8.623 6.998 2.256 15.265 4.333 24.866 6.253zm-39.552 68.525v-47.58c8.972 4.678 22.067 8.692 39.552 12.189 1.067.213 2.148.423 3.239.63-4.951 4.311-8.09 10.654-8.09 17.72v31.531c-26.221-6.057-34.028-12.472-34.701-14.49zm49.7 66.925v-43.228c0-.008 0-.017 0-.025v-40.714c0-4.686 3.813-8.5 8.5-8.5h199.934c4.686 0 8.5 3.814 8.5 8.5v40.71.04 43.217c0 4.686-3.814 8.5-8.5 8.5h-199.934c-4.686 0-8.5-3.813-8.5-8.5zm99.401 23.5h18.133v51.267h-18.133zm-183.536 74.55h135.402v18.134h-135.402c.842-2.879 1.302-5.919 1.302-9.066 0-3.148-.46-6.189-1.302-9.068zm-48.398 9.067c0-9.567 7.783-17.351 17.35-17.351s17.351 7.783 17.351 17.351c0 9.566-7.783 17.35-17.351 17.35-9.567 0-17.35-7.783-17.35-17.35zm283.2 16.85c0 .275-.225.5-.5.5h-83.4c-.275 0-.5-.225-.5-.5v-.245c0-.013.002-.026.002-.039s-.002-.026-.002-.039v-33.377c0-.275.225-.5.5-.5h25.095c.013 0 .026.002.039.002s.026-.002.039-.002h58.227c.275 0 .5.225.5.5zm181.45.5c-9.567 0-17.351-7.783-17.351-17.35s7.783-17.351 17.351-17.351c9.566 0 17.35 7.783 17.35 17.351 0 9.567-7.783 17.35-17.35 17.35z"/><path d="m316.229 362.751c.537.092.893.153 6.451.153 2.677 0 6.563-.015 12.257-.046 4.142-.023 7.48-3.399 7.458-7.542-.023-4.128-3.376-7.458-7.499-7.458-.015 0-.028 0-.043 0-3.354.019-6.889.032-9.861.038v-42.196c0-4.143-3.357-7.5-7.5-7.5s-7.5 3.357-7.5 7.5v49.658c0 3.656 2.635 6.778 6.237 7.393z"/><path d="m201.335 323.905c-5.879-2.169-11.368-4.525-13.282-5.361-.696-.645-.705-1.477-.638-1.95.091-.633.57-2.185 3.05-2.932 6.304-1.903 12.278 2.758 12.492 2.928 3.17 2.62 7.867 2.201 10.52-.954 2.665-3.171 2.256-7.901-.915-10.567-.492-.413-12.191-10.056-26.424-5.77-7.347 2.214-12.547 8.024-13.571 15.164-.966 6.73 1.953 13.206 7.618 16.899.331.216.68.405 1.041.566.289.129 7.171 3.191 14.917 6.049 3.015 1.112 6.094 3.098 5.695 5.333-.331 1.851-2.916 4.59-7.415 4.59-4.582 0-8.979-1.833-11.762-4.903s-7.526-3.302-10.594-.522c-3.069 2.782-3.303 7.524-.521 10.594 5.662 6.248 14 9.831 22.877 9.831 11.099 0 20.427-7.13 22.182-16.953 1.329-7.442-1.985-17.141-15.27-22.042z"/><path d="m276.591 357.943 2.56 2.56c1.465 1.464 3.385 2.196 5.304 2.196s3.839-.732 5.304-2.196c2.929-2.93 2.929-7.678 0-10.607l-2.648-2.648c2.951-4.878 4.653-10.592 4.653-16.698 0-17.838-14.512-32.35-32.35-32.35s-32.351 14.512-32.351 32.35 14.513 32.351 32.351 32.351c6.307-.001 12.195-1.822 17.177-4.958zm-34.529-27.393c0-9.566 7.783-17.35 17.351-17.35 9.566 0 17.35 7.783 17.35 17.35 0 1.908-.321 3.739-.893 5.458l-2.012-2.012c-2.93-2.928-7.678-2.928-10.607 0-2.929 2.93-2.929 7.678 0 10.607l2.194 2.194c-1.882.701-3.908 1.103-6.032 1.103-9.567 0-17.351-7.783-17.351-17.35z"/></g></g></svg>