<svg width="40" height="40" viewBox="0 0 40 40" fill="none" xmlns="http://www.w3.org/2000/svg">
<g clip-path="url(#clip0_14:1264)">
<path d="M20.0001 -7.27108e-05C14.5684 -7.27108e-05 13.8873 0.0229517 11.754 0.120284C9.62528 0.217378 8.1714 0.5555 6.89923 1.04986C5.58405 1.56098 4.46871 2.24485 3.35681 3.35671C2.24494 4.46857 1.56107 5.584 1.04997 6.89918C0.555577 8.17133 0.217486 9.6252 0.120326 11.754C0.0230108 13.8872 0 14.5683 0 20C0 25.4316 0.0230108 26.1127 0.120326 28.246C0.217486 30.3747 0.555577 31.8286 1.04997 33.1007C1.56107 34.4159 2.24494 35.5313 3.35681 36.6432C4.46871 37.7551 5.58405 38.439 6.89923 38.9501C8.1714 39.4444 9.62528 39.7825 11.754 39.8796C13.8873 39.977 14.5684 40 20.0001 40C25.4317 40 26.1128 39.977 28.246 39.8796C30.3748 39.7825 31.8287 39.4444 33.1008 38.9501C34.416 38.439 35.5314 37.7551 36.6433 36.6432C37.7552 35.5313 38.439 34.4159 38.9501 33.1007C39.4445 31.8286 39.7826 30.3747 39.8797 28.246C39.9771 26.1127 40.0001 25.4316 40.0001 20C40.0001 14.5683 39.9771 13.8872 39.8797 11.754C39.7826 9.6252 39.4445 8.17133 38.9501 6.89918C38.439 5.584 37.7552 4.46857 36.6433 3.35671C35.5314 2.24485 34.416 1.56098 33.1008 1.04986C31.8287 0.5555 30.3748 0.217378 28.246 0.120284C26.1128 0.0229517 25.4317 -7.27108e-05 20.0001 -7.27108e-05ZM20.0001 3.60353C25.3403 3.60353 25.9728 3.62393 28.0818 3.72016C30.0318 3.80907 31.0907 4.13489 31.7955 4.40879C32.729 4.7716 33.3953 5.20499 34.0951 5.90482C34.795 6.60472 35.2284 7.27097 35.5912 8.20452C35.8651 8.90926 36.1909 9.96825 36.2798 11.9182C36.3761 14.0272 36.3965 14.6597 36.3965 20C36.3965 25.3402 36.3761 25.9728 36.2798 28.0817C36.1909 30.0317 35.8651 31.0907 35.5912 31.7954C35.2284 32.729 34.795 33.3952 34.0951 34.095C33.3953 34.7949 32.729 35.2283 31.7955 35.5911C31.0907 35.865 30.0318 36.1908 28.0818 36.2798C25.9732 36.376 25.3407 36.3964 20.0001 36.3964C14.6594 36.3964 14.027 36.376 11.9183 36.2798C9.96832 36.1908 8.90934 35.865 8.20459 35.5911C7.27103 35.2283 6.6048 34.7949 5.90496 34.095C5.20512 33.3952 4.77167 32.729 4.40886 31.7954C4.13496 31.0907 3.80919 30.0317 3.72021 28.0817C3.62398 25.9728 3.6036 25.3402 3.6036 20C3.6036 14.6597 3.62398 14.0272 3.72021 11.9182C3.80919 9.96825 4.13496 8.90926 4.40886 8.20452C4.77167 7.27097 5.20509 6.60472 5.90493 5.9049C6.6048 5.20499 7.27103 4.7716 8.20459 4.40879C8.90934 4.13489 9.96832 3.80907 11.9183 3.72016C14.0272 3.62393 14.6598 3.60353 20.0001 3.60353Z" fill="#F7F4F4"/>
<path d="M20.0001 26.6667C16.3181 26.6667 13.3334 23.6819 13.3334 20C13.3334 16.3181 16.3181 13.3333 20.0001 13.3333C23.682 13.3333 26.6667 16.3181 26.6667 20C26.6667 23.6819 23.682 26.6667 20.0001 26.6667V26.6667ZM20.0001 9.7297C14.3279 9.7297 9.72975 14.3278 9.72975 20C9.72975 25.6721 14.3279 30.2703 20.0001 30.2703C25.6722 30.2703 30.2703 25.6721 30.2703 20C30.2703 14.3278 25.6722 9.7297 20.0001 9.7297Z" fill="#F7F4F4"/>
<path d="M33.0761 9.32391C33.0761 10.6494 32.0016 11.7239 30.6761 11.7239C29.3507 11.7239 28.2761 10.6494 28.2761 9.32391C28.2761 7.99841 29.3507 6.92386 30.6761 6.92386C32.0016 6.92386 33.0761 7.99841 33.0761 9.32391" fill="#F7F4F4"/>
</g>
<defs>
<clipPath id="clip0_14:1264">
<rect width="40" height="40" fill="white"/>
</clipPath>
</defs>
</svg>
