<svg width="40" height="40" viewBox="0 0 40 40" fill="none" xmlns="http://www.w3.org/2000/svg">
<path d="M40 19.9998C40 8.95414 31.0457 -0.000141491 20 -0.000141491C8.9543 -0.000141491 0 8.95414 0 19.9998C0 29.9824 7.31371 38.2564 16.875 39.7568V25.7811H11.7969V19.9998H16.875V15.5936C16.875 10.5811 19.8609 7.81235 24.4293 7.81235C26.6175 7.81235 28.9062 8.20297 28.9062 8.20297V13.1248H26.3843C23.8998 13.1248 23.125 14.6665 23.125 16.2482V19.9998H28.6719L27.7852 25.7811H23.125V39.7568C32.6863 38.2564 40 29.9824 40 19.9998Z" fill="#F7F4F4"/>
<path d="M27.7852 25.7812L28.6719 20H23.125V16.2483C23.125 14.6666 23.8998 13.1249 26.3843 13.1249H28.9063V8.20306C28.9063 8.20306 26.6175 7.81244 24.4293 7.81244C19.8609 7.81244 16.875 10.5812 16.875 15.5937V20H11.7969V25.7812H16.875V39.757C17.8933 39.9168 18.9369 40 20 40C21.0631 40 22.1068 39.9168 23.125 39.757V25.7812H27.7852Z" fill="#1D3557"/>
</svg>
