<svg width="40" height="29" viewBox="0 0 40 29" fill="none" xmlns="http://www.w3.org/2000/svg">
<path d="M39.1759 4.38233C38.7149 2.6687 37.3638 1.31787 35.6505 0.856446C32.5203 0 19.9995 0 19.9995 0C19.9995 0 7.47926 0 4.34913 0.823975C2.66871 1.28491 1.28467 2.66895 0.823732 4.38233C0 7.51221 0 14.0032 0 14.0032C0 14.0032 0 20.5269 0.823732 23.624C1.28516 25.3374 2.63575 26.6883 4.34937 27.1497C7.51222 28.0064 20 28.0064 20 28.0064C20 28.0064 32.5203 28.0064 35.6505 27.1824C37.3641 26.7212 38.7149 25.3704 39.1763 23.657C39.9998 20.5269 39.9998 14.0361 39.9998 14.0361C39.9998 14.0361 40.0328 7.51221 39.1759 4.38233V4.38233ZM16.0132 19.9998V8.0066L26.4249 14.0032L16.0132 19.9998Z" fill="#F7F4F4"/>
</svg>
