<svg width="40" height="33" viewBox="0 0 40 33" fill="none" xmlns="http://www.w3.org/2000/svg">
<g clip-path="url(#clip0_14:1273)">
<path d="M35.7984 8.27252C35.8226 8.62252 35.8226 8.97252 35.8226 9.32575C35.8226 20.0887 27.629 32.5016 12.6468 32.5016V32.4951C8.22097 32.5016 3.8871 31.2338 0.161289 28.8435C0.804838 28.9209 1.45161 28.9596 2.1 28.9612C5.76774 28.9645 9.33064 27.7338 12.2161 25.4677C8.73064 25.4016 5.67419 23.129 4.60645 19.8112C5.82742 20.0467 7.08548 19.9983 8.28387 19.6709C4.48387 18.9032 1.75 15.5645 1.75 11.687C1.75 11.6516 1.75 11.6177 1.75 11.5838C2.88226 12.2145 4.15 12.5645 5.44677 12.6032C1.86774 10.2112 0.764515 5.44994 2.92581 1.72736C7.06129 6.81607 13.1629 9.90962 19.7129 10.237C19.0565 7.40801 19.9532 4.44349 22.0694 2.45478C25.35 -0.629089 30.5097 -0.471025 33.5935 2.80801C35.4177 2.44833 37.1661 1.77898 38.7661 0.830588C38.1581 2.71607 36.8855 4.31769 35.1855 5.33543C36.8 5.1451 38.3774 4.71285 39.8629 4.05317C38.7694 5.69188 37.3919 7.1193 35.7984 8.27252Z" fill="#F7F4F4"/>
</g>
<defs>
<clipPath id="clip0_14:1273">
<rect width="40" height="32.9032" fill="white"/>
</clipPath>
</defs>
</svg>
