<svg id="Capa_1" enable-background="new 0 0 512 512" height="512" viewBox="0 0 512 512" width="512" xmlns="http://www.w3.org/2000/svg"><g><path d="m55.79 157.737c14.22 0 25.789-11.569 25.789-25.79s-11.569-25.79-25.789-25.79c-14.221 0-25.79 11.569-25.79 25.79s11.569 25.79 25.79 25.79zm0-36.579c5.949 0 10.789 4.84 10.789 10.79s-4.84 10.79-10.789 10.79-10.79-4.841-10.79-10.79 4.841-10.79 10.79-10.79z"/><path d="m113.937 157.737c14.221 0 25.79-11.569 25.79-25.79s-11.569-25.79-25.79-25.79-25.79 11.569-25.79 25.79 11.569 25.79 25.79 25.79zm0-36.579c5.949 0 10.79 4.84 10.79 10.79s-4.841 10.79-10.79 10.79-10.79-4.84-10.79-10.79 4.84-10.79 10.79-10.79z"/><path d="m172.084 157.737c14.22 0 25.789-11.569 25.789-25.79s-11.569-25.79-25.789-25.79c-14.221 0-25.79 11.569-25.79 25.79s11.569 25.79 25.79 25.79zm0-36.579c5.949 0 10.789 4.84 10.789 10.79s-4.84 10.79-10.789 10.79-10.79-4.84-10.79-10.79 4.841-10.79 10.79-10.79z"/><path d="m504.5 68.71c4.143 0 7.5-3.358 7.5-7.5v-9.86c0-20.887-16.993-37.88-37.88-37.88h-214.88c-20.887 0-37.88 16.993-37.88 37.88v27.21h-158.02c-34.926 0-63.34 28.415-63.34 63.341v293.28c0 34.931 28.414 63.35 63.34 63.35h337.19c34.926 0 63.34-28.419 63.34-63.35v-177.5h10.25c20.887 0 37.88-16.993 37.88-37.88v-128.591c0-4.142-3.357-7.5-7.5-7.5s-7.5 3.358-7.5 7.5v128.59c0 12.616-10.264 22.88-22.88 22.88h-96.49c-1.477 0-2.921.436-4.15 1.253l-65.824 43.733c-3.074 2.044-5.927.915-7.011.333-1.087-.582-3.614-2.336-3.614-6.039v-31.78c0-4.142-3.357-7.5-7.5-7.5h-30.29c-12.616 0-22.88-10.264-22.88-22.88v-168.45c0-12.616 10.264-22.88 22.88-22.88h214.88c12.616 0 22.88 10.264 22.88 22.88v9.86c-.001 4.142 3.356 7.5 7.499 7.5zm-245.26 188.97h22.79v24.28c0 8.07 4.418 15.45 11.53 19.261 3.237 1.734 6.781 2.594 10.315 2.594 4.224 0 8.432-1.228 12.084-3.658l63.935-42.477h38.976v177.51c0 10.113-8.228 18.34-18.34 18.34h-276.12c-4.143 0-7.5 3.358-7.5 7.5s3.357 7.5 7.5 7.5h276.12c18.384 0 33.34-14.956 33.34-33.34v-177.51h15v177.5c0 26.66-21.686 48.35-48.34 48.35h-337.19c-26.654 0-48.34-21.69-48.34-48.35v-293.28c0-26.655 21.686-48.34 48.34-48.34h158.02v74.779h-152.22c-21.582 0-39.14 17.558-39.14 39.14v227.71c0 18.384 14.956 33.34 33.34 33.34h31.07c4.143 0 7.5-3.358 7.5-7.5s-3.357-7.5-7.5-7.5h-31.07c-10.112 0-18.34-8.227-18.34-18.34v-227.709c0-13.311 10.829-24.14 24.14-24.14h152.22v36.46c0 20.887 16.994 37.88 37.88 37.88z"/><path d="m329.852 184.809c-12.341 0-22.381 10.04-22.381 22.381s10.04 22.381 22.381 22.381h73.657c12.341 0 22.381-10.04 22.381-22.381s-10.04-22.381-22.381-22.381h-1.642v-52.713c0-11.99-9.755-21.746-21.746-21.746h-50.27c-12.341 0-22.381 10.04-22.381 22.381s10.04 22.381 22.381 22.381h5.377v29.697zm12.877-44.697h-12.877c-4.069 0-7.381-3.311-7.381-7.381s3.312-7.381 7.381-7.381h50.27c3.72 0 6.746 3.026 6.746 6.746v60.213c0 4.142 3.357 7.5 7.5 7.5h9.142c4.069 0 7.381 3.311 7.381 7.381s-3.312 7.381-7.381 7.381h-73.657c-4.069 0-7.381-3.311-7.381-7.381s3.312-7.381 7.381-7.381h12.877c4.143 0 7.5-3.358 7.5-7.5v-44.697c-.001-4.142-3.359-7.5-7.501-7.5z"/><path d="m401.867 69.214c0-18.372-14.947-33.319-33.319-33.319s-33.319 14.947-33.319 33.319 14.947 33.319 33.319 33.319 33.319-14.946 33.319-33.319zm-51.638 0c0-10.101 8.218-18.319 18.319-18.319s18.319 8.218 18.319 18.319-8.218 18.319-18.319 18.319-18.319-8.218-18.319-18.319z"/><path d="m121.909 296.984c0 4.142 3.357 7.5 7.5 7.5h115.682c4.143 0 7.5-3.358 7.5-7.5s-3.357-7.5-7.5-7.5h-115.682c-4.142 0-7.5 3.358-7.5 7.5z"/><path d="m245.091 328.784h-150.682c-4.143 0-7.5 3.358-7.5 7.5s3.357 7.5 7.5 7.5h150.682c4.143 0 7.5-3.358 7.5-7.5s-3.358-7.5-7.5-7.5z"/><path d="m245.091 368.084h-150.682c-4.143 0-7.5 3.358-7.5 7.5s3.357 7.5 7.5 7.5h150.682c4.143 0 7.5-3.358 7.5-7.5s-3.358-7.5-7.5-7.5z"/><path d="m195.091 407.383h-100.682c-4.143 0-7.5 3.358-7.5 7.5s3.357 7.5 7.5 7.5h100.682c4.143 0 7.5-3.358 7.5-7.5s-3.358-7.5-7.5-7.5z"/></g></svg>