<svg width="628" height="468" viewBox="0 0 628 468" fill="none" xmlns="http://www.w3.org/2000/svg">
<path d="M0 411.589H628V411.275H0V411.589Z" fill="#EEEEEE"/>
<path d="M523.474 431.805H565.076V431.491H523.474V431.805Z" fill="#EEEEEE"/>
<path d="M405.094 435.213H416.012V434.899H405.094V435.213Z" fill="#EEEEEE"/>
<path d="M498.112 420.141H522.217V419.827H498.112V420.141Z" fill="#EEEEEE"/>
<path d="M65.8885 422.253H120.139V421.939H65.8885V422.253Z" fill="#EEEEEE"/>
<path d="M131.322 421.939H139.277V422.253H131.322V421.939Z" fill="#EEEEEE"/>
<path d="M165.128 427.555H282.784V427.241H165.128V427.555Z" fill="#EEEEEE"/>
<path d="M55.1575 0.315249C51.3768 0.315249 48.302 3.38999 48.302 7.16931V348.089C48.302 351.87 51.3768 354.944 55.1575 354.944H297.689C301.468 354.944 304.543 351.87 304.543 348.089V7.16931C304.543 3.38999 301.468 0.315249 297.689 0.315249H55.1575ZM297.689 355.258H55.1575C51.2041 355.258 47.988 352.043 47.988 348.089V7.16931C47.988 3.21792 51.2041 0.00124804 55.1575 0.00124804H297.689C301.641 0.00124804 304.857 3.21792 304.857 7.16931V348.089C304.857 352.043 301.641 355.258 297.689 355.258Z" fill="#EEEEEE"/>
<path d="M326.826 0.315249C323.047 0.315249 319.972 3.38999 319.972 7.16931V348.089C319.972 351.87 323.047 354.944 326.826 354.944H569.359C573.138 354.944 576.214 351.87 576.214 348.089V7.16931C576.214 3.38999 573.138 0.315249 569.359 0.315249H326.826ZM569.359 355.258H326.826C322.874 355.258 319.658 352.043 319.658 348.089V7.16931C319.658 3.21792 322.874 0.00124804 326.826 0.00124804H569.359C573.311 0.00124804 576.528 3.21792 576.528 7.16931V348.089C576.528 352.043 573.311 355.258 569.359 355.258Z" fill="#EEEEEE"/>
<path d="M85.384 205.453H288.323V47.7533H85.384V205.453Z" fill="#E3E3E2"/>
<path d="M88.1967 202.64H285.51V50.5667H88.1967V202.64Z" fill="#EEEEEE"/>
<path d="M182.915 99.2445H184.171V78.0366H182.915V99.2445Z" fill="#E3E3E2"/>
<path d="M135.948 167.513V99.8725H224.202V138.406H225.458V98.6165H134.692V167.513H135.948Z" fill="#E3E3E2"/>
<path d="M202.299 159.249V139.033H250.25V159.976H251.506V137.777H201.043V159.249H202.299Z" fill="#E3E3E2"/>
<path d="M206.177 85.8291H160.91V70.2446H206.177V85.8291Z" fill="#F8F8F9"/>
<path d="M203.924 124.564H247.069V107.636H203.924V124.564Z" fill="#F8F8F9"/>
<path d="M216.488 167.979H186.854V150.516H216.488V167.979Z" fill="#F8F8F9"/>
<path d="M266.744 166.608H235.01V153.343H266.744V166.608" fill="#F8F8F9"/>
<path d="M163.514 133.836H114.495V111.219H163.514V133.836" fill="#F8F8F9"/>
<path d="M150.972 175.778H119.668V159.249H150.972V175.778Z" fill="#F8F8F9"/>
<path d="M183.543 106.553L176.784 99.7934L183.543 93.0349L190.303 99.7934L183.543 106.553Z" fill="#F8F8F9"/>
<path d="M224.83 145.164L218.072 138.406L224.83 131.647L231.589 138.406L224.83 145.164Z" fill="#F8F8F9"/>
<path d="M496.071 74.3141H370.981V80.7423H496.071V74.3141Z" fill="#E3E3E2"/>
<path d="M382.248 74.314H376.738V50.6233H382.248V74.314Z" fill="#EEEEEE"/>
<path d="M408.897 74.314H403.386V50.6233H408.897V74.314Z" fill="#EEEEEE"/>
<path d="M443.172 73.3783L437.741 74.314L433.717 50.9674L439.148 50.0317L443.172 73.3783Z" fill="#EEEEEE"/>
<path d="M389.077 74.314H383.566V53.7457H389.077V74.314" fill="#EEEEEE"/>
<path d="M401.744 74.314H396.234V53.7457H401.744V74.314" fill="#EEEEEE"/>
<path d="M433.717 74.314H428.207V53.7457H433.717V74.314" fill="#EEEEEE"/>
<path d="M420.597 73.1196L415.216 74.314L410.756 54.2355L416.135 53.0398L420.597 73.1196" fill="#EEEEEE"/>
<path d="M393.843 74.314H391.087V49.4476H393.843V74.314Z" fill="#EEEEEE"/>
<path d="M426.622 74.314H423.867V49.4476H426.622V74.314Z" fill="#EEEEEE"/>
<path d="M484.069 55.5644H457.217V74.103H484.069V55.5644Z" fill="#EEEEEE"/>
<path d="M370.981 128.723H496.071V122.296H370.981V128.723Z" fill="#E3E3E2"/>
<path d="M484.803 122.296H490.314V98.6039H484.803V122.296Z" fill="#EEEEEE"/>
<path d="M458.155 122.296H463.666V98.6039H458.155V122.296Z" fill="#EEEEEE"/>
<path d="M423.88 121.36L429.311 122.296L433.335 98.9481L427.904 98.0124L423.88 121.36Z" fill="#EEEEEE"/>
<path d="M477.975 122.296H483.485V101.726H477.975V122.296Z" fill="#EEEEEE"/>
<path d="M465.308 122.296H470.818V101.726H465.308V122.296Z" fill="#EEEEEE"/>
<path d="M433.335 122.296H438.845V101.726H433.335V122.296Z" fill="#EEEEEE"/>
<path d="M446.455 121.1L451.835 122.296L456.296 102.216L450.917 101.02L446.455 121.1Z" fill="#EEEEEE"/>
<path d="M473.209 122.296H475.965V97.4283H473.209V122.296Z" fill="#EEEEEE"/>
<path d="M440.43 122.296H443.185V97.4283H440.43V122.296Z" fill="#EEEEEE"/>
<path d="M382.983 103.544H409.835V122.084H382.983V103.544Z" fill="#EEEEEE"/>
<path d="M398.52 410.352H468.675V160.239H398.52V410.352Z" fill="#F8F8F9"/>
<path d="M404.57 404.693H462.625V167.378H404.57V404.693Z" fill="#EEEEEE"/>
<path d="M452.056 176.795H415.139V174.351H452.056V176.795Z" fill="#E3E3E2"/>
<path d="M452.056 187.368H415.139V184.924H452.056V187.368Z" fill="#E3E3E2"/>
<path d="M452.056 197.941H415.139V195.496H452.056V197.941Z" fill="#E3E3E2"/>
<path d="M452.056 208.514H415.139V206.069H452.056V208.514Z" fill="#E3E3E2"/>
<path d="M415.139 219.086H452.057V216.642H415.139V219.086Z" fill="#E3E3E2"/>
<path d="M415.139 229.659H452.057V227.215H415.139V229.659Z" fill="#E3E3E2"/>
<path d="M415.139 240.232H452.057V237.788H415.139V240.232Z" fill="#E3E3E2"/>
<path d="M452.056 326.217H415.139V323.773H452.056V326.217Z" fill="#E3E3E2"/>
<path d="M415.139 336.79H452.057V334.346H415.139V336.79Z" fill="#E3E3E2"/>
<path d="M415.139 347.363H452.057V344.919H415.139V347.363Z" fill="#E3E3E2"/>
<path d="M415.139 357.935H452.057V355.492H415.139V357.935Z" fill="#E3E3E2"/>
<path d="M415.139 368.508H452.057V366.064H415.139V368.508Z" fill="#E3E3E2"/>
<path d="M415.139 379.081H452.057V376.637H415.139V379.081Z" fill="#E3E3E2"/>
<path d="M415.139 389.654H452.057V387.21H415.139V389.654Z" fill="#E3E3E2"/>
<path d="M453.873 273.976C453.873 276.231 452.047 278.058 449.792 278.058C447.538 278.058 445.71 276.231 445.71 273.976C445.71 271.723 447.538 269.895 449.792 269.895C452.047 269.895 453.873 271.723 453.873 273.976Z" fill="#E3E3E2"/>
<path d="M326.3 410.352H396.455V160.239H326.3V410.352Z" fill="#F8F8F9"/>
<path d="M332.35 404.693H390.405V167.378H332.35V404.693Z" fill="#EEEEEE"/>
<path d="M379.836 176.795H342.919V174.351H379.836V176.795Z" fill="#E3E3E2"/>
<path d="M379.836 187.368H342.919V184.924H379.836V187.368Z" fill="#E3E3E2"/>
<path d="M379.836 197.941H342.919V195.496H379.836V197.941Z" fill="#E3E3E2"/>
<path d="M342.919 208.514H379.836V206.069H342.919V208.514Z" fill="#E3E3E2"/>
<path d="M342.919 219.086H379.836V216.642H342.919V219.086Z" fill="#E3E3E2"/>
<path d="M342.919 229.659H379.836V227.215H342.919V229.659Z" fill="#E3E3E2"/>
<path d="M342.919 240.232H379.836V237.788H342.919V240.232Z" fill="#E3E3E2"/>
<path d="M342.919 326.217H379.836V323.773H342.919V326.217Z" fill="#E3E3E2"/>
<path d="M342.919 336.79H379.836V334.346H342.919V336.79Z" fill="#E3E3E2"/>
<path d="M342.919 347.363H379.836V344.919H342.919V347.363Z" fill="#E3E3E2"/>
<path d="M342.919 357.935H379.836V355.492H342.919V357.935Z" fill="#E3E3E2"/>
<path d="M379.836 368.508H342.919V366.064H379.836V368.508Z" fill="#E3E3E2"/>
<path d="M379.836 379.081H342.919V376.637H379.836V379.081Z" fill="#E3E3E2"/>
<path d="M379.836 389.654H342.919V387.21H379.836V389.654Z" fill="#E3E3E2"/>
<path d="M381.653 273.976C381.653 276.231 379.827 278.058 377.572 278.058C375.318 278.058 373.49 276.231 373.49 273.976C373.49 271.723 375.318 269.895 377.572 269.895C379.827 269.895 381.653 271.723 381.653 273.976Z" fill="#E3E3E2"/>
<path d="M470.74 410.352H540.895V160.239H470.74V410.352Z" fill="#F8F8F9"/>
<path d="M476.79 404.693H534.845V167.378H476.79V404.693Z" fill="#EEEEEE"/>
<path d="M524.276 176.795H487.359V174.351H524.276V176.795Z" fill="#E3E3E2"/>
<path d="M524.276 187.368H487.359V184.924H524.276V187.368Z" fill="#E3E3E2"/>
<path d="M524.276 197.941H487.359V195.496H524.276V197.941Z" fill="#E3E3E2"/>
<path d="M524.276 208.514H487.359V206.069H524.276V208.514Z" fill="#E3E3E2"/>
<path d="M524.276 219.086H487.359V216.642H524.276V219.086Z" fill="#E3E3E2"/>
<path d="M524.276 229.659H487.359V227.215H524.276V229.659Z" fill="#E3E3E2"/>
<path d="M524.276 240.232H487.359V237.788H524.276V240.232Z" fill="#E3E3E2"/>
<path d="M524.276 326.217H487.359V323.773H524.276V326.217Z" fill="#E3E3E2"/>
<path d="M524.276 336.79H487.359V334.346H524.276V336.79Z" fill="#E3E3E2"/>
<path d="M524.276 347.363H487.359V344.919H524.276V347.363Z" fill="#E3E3E2"/>
<path d="M524.276 357.935H487.359V355.492H524.276V357.935Z" fill="#E3E3E2"/>
<path d="M524.276 368.508H487.359V366.064H524.276V368.508Z" fill="#E3E3E2"/>
<path d="M524.276 379.081H487.359V376.637H524.276V379.081Z" fill="#E3E3E2"/>
<path d="M524.276 389.654H487.359V387.21H524.276V389.654Z" fill="#E3E3E2"/>
<path d="M526.093 273.976C526.093 276.231 524.267 278.058 522.012 278.058C519.758 278.058 517.93 276.231 517.93 273.976C517.93 271.723 519.758 269.895 522.012 269.895C524.267 269.895 526.093 271.723 526.093 273.976Z" fill="#E3E3E2"/>
<path d="M557.525 453.778C557.525 461.633 448.496 468 314 468C179.505 468 70.4758 461.633 70.4758 453.778C70.4758 445.923 179.505 439.555 314 439.555C448.496 439.555 557.525 445.923 557.525 453.778" fill="#F8F8F9"/>
<path d="M117.951 436.808C117.951 436.808 111.337 405.552 123.382 388.621C135.428 371.689 112.496 388.426 109.858 404.275C109.858 404.275 105.906 375.937 117.59 356C129.275 336.062 107.413 352.432 105.556 372.976C105.556 372.976 101.976 347.693 107.345 333.486C112.714 319.279 103.374 328.414 99.7833 337.32C96.1924 346.226 100.904 368.278 100.904 368.278C100.904 368.278 91.5349 327.502 82.6649 330.748C73.7954 333.993 95.9245 360.71 98.9949 374.606C98.9949 374.606 88.5357 355.904 80.6018 359.798C72.6679 363.69 92.89 365.627 102.15 393.515L105.403 406.591C105.403 406.591 95.7793 388.133 89.4861 393.956C83.1933 399.779 108.144 409.829 113.942 437.806L117.951 436.808Z" fill="#1D3557"/>
<path d="M116.655 438.607C116.655 438.607 115.265 399.201 95.7926 382.51C76.3211 365.819 108.774 379.033 116.655 397.229C116.655 397.229 112.947 362.111 93.0112 341.713C73.0757 321.314 104.138 334.408 112.483 358.459C112.483 358.459 109.238 327.111 98.5744 311.695C87.9117 296.278 101.82 304.437 108.774 314.034C115.729 323.631 116.655 351.448 116.655 351.448C116.655 351.448 115.729 299.816 127.318 301.061C138.909 302.304 120.364 340.899 120.828 358.459C120.828 358.459 127.782 332.941 138.445 335.24C149.109 337.54 125.465 345.883 122.683 382.047V398.678C122.683 398.678 128.71 373.702 137.982 378.801C147.255 383.9 120.364 403.374 121.755 438.607H116.655" fill="#4870C0"/>
<path d="M121.769 433.009H116.221C115.034 421.529 110.743 395.325 95.7926 382.51C91.4167 378.759 89.6642 376.519 89.6647 375.505C89.6652 375.066 89.9963 374.857 90.587 374.857C94.6901 374.857 111.314 384.899 116.655 397.229C116.655 397.229 115.52 386.477 111.127 373.414C110.118 370.411 108.935 367.285 107.555 364.138C106.605 361.975 105.561 359.8 104.415 357.651C102.672 354.381 100.691 351.165 98.4454 348.126C96.7831 345.876 94.9767 343.723 93.0112 341.713C92.7242 341.419 92.4465 341.131 92.1801 340.851C88.0947 336.553 86.4506 333.879 86.4496 332.58C86.4486 331.94 86.8475 331.633 87.5501 331.633C91.7783 331.633 107.012 342.691 112.483 358.459C112.483 358.459 111.191 345.984 107.562 332.904C107.071 331.136 106.538 329.358 105.959 327.598C104.032 321.733 101.602 316.072 98.5744 311.695C95.794 307.675 94.6847 305.258 94.6867 304.051C94.6877 303.392 95.0213 303.094 95.5953 303.094C97.9999 303.094 104.625 308.308 108.774 314.034C115.729 323.631 116.655 351.448 116.655 351.448C116.655 351.448 116.638 350.472 116.638 348.792C116.637 338.394 117.305 301.038 126.91 301.038C127.044 301.038 127.18 301.046 127.318 301.061C130.085 301.357 131.135 303.784 131.135 307.544C131.136 318.553 122.149 340.998 120.951 354.944C120.942 355.05 120.933 355.155 120.925 355.258C120.856 356.145 120.819 356.996 120.819 357.807C120.82 358.027 120.822 358.244 120.828 358.459C120.828 358.459 127.196 335.093 137.086 335.093C137.533 335.093 137.985 335.141 138.445 335.24C140.387 335.659 141.191 336.278 141.191 337.23C141.189 339.812 135.26 344.84 130.066 354.944C130.012 355.049 129.958 355.154 129.906 355.258C126.57 361.836 123.568 370.53 122.683 382.047V398.678C122.683 398.678 127.645 378.114 135.491 378.114C136.291 378.114 137.123 378.329 137.982 378.801C139.349 379.553 139.93 380.617 139.931 381.999C139.936 387.195 131.742 396.874 126.34 411.275C126.301 411.378 126.261 411.485 126.222 411.589C123.905 417.841 122.125 424.973 121.769 433.009Z" fill="#658ACF"/>
<path d="M133.662 456.295H104.031C96.4049 456.295 90.2225 450.113 90.2225 442.485V436.304H147.472V442.485C147.472 450.113 141.289 456.295 133.662 456.295" fill="#1D2A30"/>
<path d="M82.7253 433.009V437.375C82.7253 440.296 85.0935 442.664 88.0147 442.664H149.679C152.6 442.664 154.969 440.296 154.969 437.375V433.009H82.7253Z" fill="#1D2A30"/>
<path d="M149.679 442.664H147.094L147.787 433.009H154.969V437.375C154.969 440.296 152.6 442.664 149.679 442.664V442.664ZM139.471 442.664H88.0147C85.0935 442.664 82.7253 440.296 82.7253 437.375V433.009H140.039L139.471 442.664" fill="#45555C"/>
<path d="M526.781 431.751C527.78 430.075 526.371 427.55 524.418 427.52C525.274 425.114 524.43 422.205 522.419 420.629C522.166 420.43 521.874 420.243 521.551 420.243C521.206 420.241 520.899 420.453 520.618 420.655C518.778 421.976 516.939 423.298 515.099 424.62C514.679 424.922 514.243 425.242 514.004 425.703C512.876 427.887 516.943 430.689 515.271 432.491C514.792 433.009 514.018 433.117 513.419 433.491C512.105 434.313 511.947 436.115 511.335 437.539C510.722 438.962 508.588 440.067 507.771 438.75C508.373 437.385 506.55 436.208 505.068 436.036C503.604 435.865 502.038 435.782 501.219 434.391C499.117 436.228 494.408 431.101 494.516 429.033C492.788 429.166 491.611 430.783 491.232 432.402C490.84 434.081 491.082 435.833 491.054 437.556C491.002 440.903 489.922 444.181 489.981 447.527C490.027 450.132 491.033 453.025 493.418 454.074C494.566 454.577 495.862 454.577 497.117 454.57C506.168 454.513 515.221 454.454 524.273 454.396C524.925 454.392 525.604 454.381 526.182 454.079C527.407 453.439 527.667 451.83 527.78 450.452C528.266 444.553 528.752 438.655 529.238 432.754C528.418 432.42 527.599 432.086 526.781 431.751" fill="#4870C0"/>
<path d="M496.709 454.572C495.585 454.572 494.442 454.523 493.418 454.074C493.204 453.979 493 453.87 492.808 453.747H495.883H500.566H507.327H512.01H518.772H523.456H526.653C526.514 453.875 526.358 453.988 526.182 454.079C525.605 454.381 524.925 454.392 524.273 454.396C515.221 454.454 506.168 454.513 497.117 454.57C496.982 454.571 496.846 454.572 496.709 454.572V454.572ZM527.178 451.768H525.435L526.84 450.362L527.256 450.778L527.178 451.768ZM522.643 451.768H519.593L516.792 448.965L521.118 444.638L525.445 448.965L522.643 451.768V451.768ZM516.803 451.768H513.99L515.396 450.362L516.803 451.768ZM511.198 451.768H508.149L505.348 448.965L509.675 444.638L513.99 448.965L511.198 451.768V451.768ZM505.358 451.768H502.546L503.951 450.362L505.358 451.768ZM499.745 451.768H496.695L493.903 448.965L498.219 444.638L502.546 448.965L499.745 451.768V451.768ZM493.903 451.768H492.161L492.081 450.778L492.498 450.362L493.903 451.768V451.768ZM515.396 447.568L511.07 443.243L515.396 438.917L519.713 443.243L515.396 447.568V447.568ZM503.951 447.568L499.625 443.243L503.942 438.917L508.268 443.243L503.951 447.568ZM526.84 447.56L522.515 443.243L526.84 438.917L528.118 440.193L527.583 446.826L526.84 447.56ZM492.498 447.56L491.764 446.826L491.22 440.193L492.498 438.917L496.823 443.243L492.498 447.56ZM521.118 441.837L516.792 437.52L521.118 433.195L525.445 437.52L521.118 441.837Z" fill="#799BD7"/>
<path d="M509.675 441.837L505.348 437.52L506.426 436.443C507.236 436.84 507.889 437.478 507.889 438.21C507.89 438.386 507.852 438.565 507.771 438.75C508.028 439.164 508.416 439.339 508.847 439.339C509.782 439.339 510.916 438.514 511.335 437.539C511.605 436.91 511.787 436.205 512.02 435.546L513.99 437.52L509.675 441.837V441.837ZM498.219 441.837L493.903 437.52L497.69 433.725C498.387 434.258 499.113 434.642 499.775 434.75L502.546 437.52L498.219 441.837ZM528.326 437.61L528.237 437.52L528.345 437.411L528.326 437.61ZM491.055 437.567C491.055 437.563 491.055 437.56 491.055 437.556C491.056 437.528 491.056 437.502 491.056 437.475L491.101 437.52L491.055 437.567" fill="#799BD7"/>
<path d="M526.841 436.115L522.515 431.798L526.087 428.226C526.715 428.808 527.112 429.673 527.111 430.52C527.111 430.948 527.008 431.371 526.782 431.751C527.435 432.018 528.088 432.284 528.741 432.552L528.593 434.371L526.841 436.115Z" fill="#799BD7"/>
<path d="M515.396 436.115L513.052 433.771C513.164 433.668 513.286 433.575 513.419 433.491C514.018 433.117 514.792 433.009 515.271 432.491C515.565 432.175 515.681 431.827 515.68 431.458C515.677 430.546 514.959 429.502 514.411 428.454L515.396 427.471L519.713 431.798L515.396 436.115V436.115ZM503.942 436.115L503.684 435.858C503.832 435.883 503.981 435.905 504.132 435.925L503.942 436.115ZM492.498 436.115L491.005 434.623C491.011 433.875 491.062 433.132 491.232 432.402C491.581 430.912 492.607 429.421 494.117 429.091L494.57 429.544C494.757 430.355 495.404 431.416 496.249 432.371L492.498 436.115" fill="#799BD7"/>
<path d="M521.118 430.392L516.792 426.066L521.118 421.75L524.748 425.37C524.749 425.434 524.751 425.497 524.751 425.561C524.749 426.017 524.699 426.471 524.596 426.916L521.118 430.392V430.392ZM513.83 426.227C513.845 426.14 513.865 426.054 513.894 425.969L513.99 426.066L513.83 426.227ZM515.396 424.67L515.243 424.517C515.603 424.258 515.964 423.998 516.325 423.739L515.396 424.67Z" fill="#799BD7"/>
<path d="M530.366 412.493L530.048 416.434L528.237 414.621L530.366 412.493ZM529.187 427.016L528.237 426.066L529.355 424.957L529.187 427.016V427.016ZM528.593 434.371L526.84 436.115L522.515 431.798L526.84 427.471L528.979 429.61L528.593 434.371ZM528.345 437.411L528.326 437.61L528.237 437.52L528.345 437.411ZM527.583 446.826L526.84 447.559L522.515 443.243L526.84 438.917L528.118 440.193L527.583 446.826ZM527.178 451.768H525.435L526.84 450.362L527.256 450.778L527.178 451.768ZM513.99 451.768L515.396 450.362L516.802 451.768H513.99V451.768ZM508.149 451.768L505.348 448.965L509.675 444.638L513.99 448.965L511.198 451.768H508.149V451.768ZM502.546 451.768L503.951 450.362L505.358 451.768H502.546ZM493.903 448.965L498.219 444.638L502.546 448.965L499.745 451.768H496.695L493.903 448.965V448.965ZM492.161 451.768L492.081 450.778L492.498 450.362L493.903 451.768H492.161V451.768ZM491.764 446.826L491.22 440.193L492.498 438.917L496.823 443.243L492.498 447.559L491.764 446.826ZM491.012 437.61L491.002 437.421L491.101 437.52L491.012 437.61ZM490.369 429.61L492.498 427.471L496.823 431.798L492.498 436.115L490.754 434.371L490.369 429.61V429.61ZM490.16 427.007L489.993 424.957L491.101 426.066L490.16 427.007V427.007ZM488.982 412.502L491.101 414.621L489.299 416.423L488.982 412.502ZM489.25 405.028L488.448 405.83L488.378 405.028H489.25ZM492.952 405.028L496.823 408.899L492.498 413.225L488.735 409.454L488.656 408.424L492.042 405.028H492.952V405.028ZM500.694 405.028L498.219 407.503L495.754 405.028H500.694ZM508.268 408.899L503.951 413.225L499.625 408.899L503.496 405.028H504.407L508.268 408.899ZM509.675 407.503L507.199 405.028H512.139L509.675 407.503ZM519.713 408.899L515.396 413.225L511.07 408.899L514.941 405.028H515.852L519.713 408.899ZM516.792 426.066L521.118 421.75L525.445 426.066L521.118 430.392L516.792 426.066ZM516.792 437.52L521.118 433.195L525.445 437.52L521.118 441.837L516.792 437.52ZM521.118 444.638L525.445 448.965L522.643 451.768H519.593L516.792 448.965L521.118 444.638V444.638ZM515.396 438.917L519.713 443.243L515.396 447.568L511.07 443.243L515.396 438.917ZM505.348 437.52L509.675 433.195L513.99 437.52L509.675 441.837L505.348 437.52V437.52ZM503.942 438.917L508.268 443.243L503.951 447.568L499.625 443.243L503.942 438.917V438.917ZM502.546 437.52L498.219 441.837L493.903 437.52L498.219 433.195L502.546 437.52V437.52ZM498.219 421.75L502.546 426.066L498.219 430.392L493.903 426.066L498.219 421.75ZM498.219 418.948L493.903 414.621L498.219 410.295L502.546 414.621L498.219 418.948V418.948ZM508.268 420.344L503.951 424.67L499.625 420.344L503.951 416.028L508.268 420.344ZM509.675 418.948L505.348 414.621L509.675 410.295L513.99 414.621L509.675 418.948ZM515.396 427.471L519.713 431.798L515.396 436.115L511.07 431.788L515.396 427.471ZM508.268 431.788L503.942 436.115L499.625 431.798L503.951 427.471L508.268 431.788ZM505.348 426.066L509.675 421.75L513.99 426.066L509.675 430.392L505.348 426.066ZM519.713 420.344L515.396 424.67L511.07 420.344L515.396 416.028L519.713 420.344ZM518.644 405.028H523.594L521.118 407.503L518.644 405.028ZM525.445 414.621L521.118 418.948L516.792 414.621L521.118 410.295L525.445 414.621V414.621ZM489.507 419.017L492.498 416.028L496.823 420.344L492.498 424.67L489.745 421.908L489.507 419.017ZM529.604 421.908L526.84 424.67L522.515 420.344L526.84 416.028L529.831 419.017L529.604 421.908ZM530.691 408.424L530.612 409.454L526.84 413.225L522.515 408.899L526.386 405.028H527.296L530.691 408.424V408.424ZM530.9 405.841L530.088 405.028H530.969L530.9 405.841ZM528.365 403.048H525.317H516.921H513.862H505.476H502.418H494.031H490.973H486.23L486.577 407.306L486.824 410.345L487.467 418.255L487.834 422.8L488.319 428.848L488.527 431.443L488.597 432.214L488.844 435.263L489.181 439.442L489.389 442.035L489.606 444.668L489.854 447.716L490.042 450.024L490.249 452.619L490.339 453.747H495.883H500.566H507.327H512.01H518.772H523.456H529.008L529.097 452.619L529.306 450.034L529.494 447.708L529.742 444.658L529.959 442.035L530.168 439.442L530.503 435.254L530.752 432.214L530.811 431.443L531.019 428.848L531.514 422.8L531.881 418.265L532.514 410.345L532.761 407.306L533.108 403.048H528.365" fill="#4870C0"/>
<path d="M529.008 453.747H490.339L490.249 452.619L490.042 450.024L489.854 447.716L489.606 444.668L489.389 442.035L489.181 439.442L488.844 435.263L488.597 432.214L488.527 431.443L488.319 428.848L487.834 422.8L487.467 418.255L486.824 410.345L486.577 407.306L486.23 403.048H490.973H494.031H502.418H505.476H513.862H516.921H525.317H528.365H533.108L532.973 404.693L532.761 407.306L532.514 410.345L532.513 410.352L532.438 411.275L532.413 411.589L531.881 418.265L531.514 422.8L531.019 428.848L530.811 431.443L530.807 431.491L530.783 431.805L530.752 432.214L530.503 435.254L530.168 439.442L529.959 442.035L529.742 444.658L529.494 447.708L529.306 450.034L529.097 452.619L529.008 453.747V453.747ZM525.435 451.768H527.178L527.256 450.778L526.84 450.362L525.435 451.768ZM516.792 448.965L519.593 451.768H522.643L525.445 448.965L521.118 444.638L516.792 448.965V448.965ZM513.99 451.768H516.802L515.396 450.362L513.99 451.768ZM505.348 448.965L508.149 451.768H511.198L513.99 448.965L509.675 444.638L505.348 448.965V448.965ZM502.546 451.768H505.358L503.951 450.362L502.546 451.768ZM493.903 448.965L496.695 451.768H499.745L502.546 448.965L498.219 444.638L493.903 448.965V448.965ZM492.081 450.778L492.161 451.768H493.903L492.498 450.362L492.081 450.778V450.778ZM511.07 443.243L515.396 447.568L519.713 443.243L515.396 438.917L511.07 443.243V443.243ZM499.625 443.243L503.951 447.568L508.268 443.243L503.942 438.917L499.625 443.243ZM522.515 443.243L526.84 447.559L527.583 446.826L528.118 440.193L526.84 438.917L522.515 443.243ZM491.22 440.193L491.764 446.826L492.498 447.559L496.823 443.243L492.498 438.917L491.22 440.193ZM516.792 437.52L521.118 441.837L525.445 437.52L521.118 433.195L516.792 437.52V437.52ZM505.348 437.52L509.675 441.837L513.99 437.52L509.675 433.195L505.348 437.52ZM493.903 437.52L498.219 441.837L502.546 437.52L498.219 433.195L493.903 437.52ZM528.237 437.52L528.326 437.61L528.345 437.411L528.237 437.52ZM491.002 437.421L491.012 437.61L491.101 437.52L491.002 437.421ZM522.515 431.798L526.84 436.115L528.593 434.371L528.979 429.61L526.84 427.471L522.515 431.798ZM511.07 431.788L515.396 436.115L519.713 431.798L515.396 427.471L514.411 428.454L511.07 431.788V431.788ZM499.625 431.798L503.942 436.115L508.268 431.788L503.951 427.471L499.625 431.798ZM490.369 429.61L490.754 434.371L492.498 436.115L496.823 431.798L494.57 429.544L494.117 429.091L492.498 427.471L490.369 429.61V429.61ZM516.792 426.066L521.118 430.392L525.445 426.066L524.748 425.37L521.118 421.75L516.792 426.066ZM505.348 426.066L509.675 430.392L513.99 426.066L509.675 421.75L505.348 426.066ZM493.903 426.066L498.219 430.392L502.546 426.066L498.219 421.75L493.903 426.066ZM528.237 426.066L529.187 427.016L529.355 424.957L528.237 426.066V426.066ZM489.993 424.957L490.16 427.007L491.101 426.066L489.993 424.957V424.957ZM522.515 420.344L526.84 424.67L529.604 421.908L529.831 419.017L526.84 416.028L522.515 420.344ZM511.07 420.344L515.396 424.67L519.713 420.344L515.396 416.028L511.588 419.827L511.272 420.141L511.07 420.344V420.344ZM499.625 420.344L503.951 424.67L508.268 420.344L503.951 416.028L500.143 419.827L499.828 420.141L499.625 420.344V420.344ZM489.507 419.017L489.745 421.908L492.498 424.67L496.823 420.344L492.498 416.028L489.507 419.017ZM516.792 414.621L521.118 418.948L525.445 414.621L521.176 410.352L521.118 410.295L521.06 410.352L520.138 411.275L519.824 411.589L516.792 414.621V414.621ZM505.348 414.621L509.675 418.948L513.99 414.621L509.731 410.352L509.675 410.295L509.617 410.352L508.694 411.275L508.38 411.589L505.348 414.621V414.621ZM493.903 414.621L498.219 418.948L502.546 414.621L498.277 410.352L498.219 410.295L498.162 410.352L497.242 411.275L496.928 411.589L493.903 414.621V414.621ZM528.237 414.621L530.048 416.434L530.366 412.493L528.237 414.621ZM488.982 412.502L489.299 416.423L491.101 414.621L488.982 412.502ZM522.515 408.899L526.84 413.225L530.612 409.454L530.691 408.424L527.296 405.028H526.386L522.515 408.899V408.899ZM511.07 408.899L515.396 413.225L519.713 408.899L515.852 405.028H514.941L511.07 408.899V408.899ZM499.625 408.899L503.951 413.225L508.268 408.899L504.407 405.028H503.496L499.625 408.899ZM488.656 408.424L488.735 409.454L492.498 413.225L496.823 408.899L492.952 405.028H492.042L488.656 408.424V408.424ZM518.644 405.028L521.118 407.503L523.594 405.028H518.644ZM507.199 405.028L509.675 407.503L512.139 405.028H507.199ZM495.754 405.028L498.219 407.503L500.694 405.028H495.754ZM530.088 405.028L530.9 405.841L530.969 405.028H530.088ZM488.378 405.028L488.448 405.83L489.25 405.028H488.378Z" fill="#B4CAEC"/>
<path d="M485.597 406.794H533.745C534.884 406.794 535.808 405.869 535.808 404.73V403.346C535.808 402.207 534.884 401.282 533.745 401.282H485.597C484.457 401.282 483.534 402.207 483.534 403.346V404.73C483.534 405.869 484.457 406.794 485.597 406.794" fill="#1D3557"/>
<path d="M529.975 456.295H489.366C488.226 456.295 487.302 455.371 487.302 454.232V452.847C487.302 451.707 488.226 450.784 489.366 450.784H529.975C531.115 450.784 532.039 451.707 532.039 452.847V454.232C532.039 455.371 531.115 456.295 529.975 456.295" fill="#1D3557"/>
<path d="M460.859 428.658L425.844 425.215V385.729H411.967V425.203L376.81 428.658C373.32 429.001 370.659 431.935 370.659 435.442V440.701H417.548H420.121H467.01V435.442C467.01 431.935 464.349 429.001 460.859 428.658" fill="#1D2A30"/>
<path d="M467.01 440.701H400.507L399.667 426.411L411.967 425.203V395.486C412.774 396.004 413.736 396.306 414.769 396.306H423.042C424.075 396.306 425.035 396.004 425.844 395.486V404.693V410.352V411.275V411.589V425.215L460.859 428.658C464.349 429.001 467.01 431.935 467.01 435.442V440.701V440.701ZM392.854 440.701H388.654L385.616 433.082L385.626 433.079L383.592 427.991L391.882 427.176L392.854 440.701V440.701ZM377.142 440.701H370.659V435.442C370.659 434.551 370.831 433.697 371.145 432.913L373.637 431.899L373.745 432.171L377.142 440.701" fill="#304047"/>
<path d="M383.438 447.222C383.438 452.232 379.376 456.295 374.366 456.295C369.354 456.295 365.292 452.232 365.292 447.222C365.292 442.212 369.354 438.148 374.366 438.148C379.376 438.148 383.438 442.212 383.438 447.222Z" fill="#1D2A30"/>
<path d="M454.231 447.222C454.231 452.232 458.293 456.295 463.304 456.295C468.315 456.295 472.378 452.232 472.378 447.222C472.378 442.212 468.315 438.148 463.304 438.148C458.293 438.148 454.231 442.212 454.231 447.222Z" fill="#1D2A30"/>
<path d="M423.042 396.306H414.769C411.901 396.306 409.578 393.981 409.578 391.115V352.475H428.234V391.115C428.234 393.981 425.91 396.306 423.042 396.306Z" fill="#1D2A30"/>
<path d="M423.042 396.306H414.769C411.901 396.306 409.578 393.981 409.578 391.115V357.504H428.234V357.935V366.064V368.508V376.637V379.081V387.21V389.654V391.115C428.234 393.981 425.91 396.306 423.042 396.306Z" fill="#45555C"/>
<path d="M467.369 276.391C467.369 276.391 456.972 341.301 436.458 352.475H457.315C457.315 352.475 477.919 330.363 484.197 276.391H467.369Z" fill="#1D2A30"/>
<path d="M462.617 345.178C461.478 344.019 459.893 343.3 458.139 343.3H445.643C455.139 329.248 461.545 304.716 464.817 289.581H482.288C480.757 298.354 478.855 306.117 476.79 312.925C474.861 319.288 472.788 324.814 470.74 329.557C467.82 336.319 464.95 341.48 462.617 345.178Z" fill="#304047"/>
<path d="M377.219 343.3H458.139C461.608 343.3 464.419 346.111 464.419 349.58V357.504H370.939V349.58C370.939 346.111 373.752 343.3 377.219 343.3Z" fill="#4870C0"/>
<path d="M369.569 350.403H465.79C467.184 350.403 468.316 351.533 468.316 352.928V354.98C468.316 356.374 467.184 357.504 465.79 357.504H369.569C368.174 357.504 367.043 356.374 367.043 354.98V352.928C367.043 351.533 368.174 350.403 369.569 350.403" fill="#1D2A30"/>
<path d="M465.79 357.504H395.615L395.198 350.403H465.79C467.184 350.403 468.316 351.533 468.316 352.928V354.98C468.316 356.374 467.184 357.504 465.79 357.504ZM386.873 357.504H379.836H369.569C368.35 357.504 367.332 356.64 367.095 355.492C367.061 355.326 367.043 355.154 367.043 354.98V352.928C367.043 351.533 368.174 350.403 369.569 350.403H386.363L386.873 357.504" fill="#A5ADAD"/>
<path d="M486.66 289.581H453.246C443.458 289.581 437.099 281.732 439.045 272.049L441.642 259.125C443.588 249.443 453.099 241.594 462.887 241.594H496.302C506.09 241.594 512.447 249.443 510.502 259.125L507.905 272.049C505.959 281.732 496.448 289.581 486.66 289.581" fill="#1D3557"/>
<path d="M317.421 246.105L308.768 241.238C308.768 241.238 306.524 239.374 304.12 239.055C301.716 238.734 291.14 239.676 289.857 240.166C288.575 240.657 289.056 250.743 289.857 250.908C290.659 251.074 303.158 251.224 304.281 250.908C305.403 250.593 308.127 247.547 308.127 247.547L314.536 251.834L317.421 246.105Z" fill="#F9A95E"/>
<path d="M356.573 232.578C352.037 236.651 337.73 253.697 335.508 254.308C333.286 254.92 312.374 241.765 312.374 241.765L309.408 250.071C309.408 250.071 329.068 266.255 335.508 267.372C342.472 268.579 365.715 249.78 365.715 249.78L356.573 232.578Z" fill="#4870C0"/>
<path d="M349.698 261.354H349.695C349.786 261.298 349.877 261.239 349.968 261.182H349.969C349.879 261.239 349.788 261.298 349.698 261.354" fill="#F8F8F9"/>
<path d="M315.873 255.18C312.126 252.311 309.407 250.073 309.407 250.073L309.888 248.725L309.408 250.071C309.408 250.071 312.126 252.309 315.873 255.178C315.873 255.178 315.873 255.179 315.873 255.18V255.18ZM321.451 247.292C320.949 246.996 320.456 246.702 319.972 246.413V246.412C320.456 246.701 320.951 246.996 321.452 247.292H321.451ZM319.658 246.225C315.601 243.796 312.373 241.765 312.373 241.765L311.926 243.014H311.925L312.372 241.761C312.372 241.761 315.603 243.793 319.658 246.223V246.225Z" fill="white"/>
<path d="M319.971 246.413C319.866 246.351 319.762 246.288 319.658 246.226V246.224C319.762 246.287 319.866 246.349 319.971 246.412V246.413Z" fill="#F8F8F9"/>
<path d="M309.888 248.725L311.925 243.014H311.926L309.888 248.725Z" fill="#FCD4B2"/>
<path d="M349.696 261.354H339.416L339.347 261.174L349.968 261.181C349.878 261.239 349.786 261.298 349.696 261.354V261.354ZM335.341 259.661L327.689 258.898C329.38 258.874 330.673 258.821 331 258.729C331.53 258.58 332.418 257.823 333.207 257.064H335.341H335.339V257.578H335.341V259.661ZM334.072 256.197C334.391 255.866 334.641 255.594 334.763 255.46H335.341H335.339L334.072 256.197V256.197ZM315.873 255.177C312.126 252.309 309.408 250.071 309.408 250.071L309.888 248.725L311.926 243.014L312.374 241.765C312.374 241.765 315.601 243.796 319.658 246.225C319.763 246.287 319.867 246.35 319.972 246.413C320.456 246.702 320.949 246.996 321.451 247.292C319.086 247.522 317.09 247.791 316.577 247.987C315.795 248.286 315.669 252.166 315.873 255.177V255.177ZM358.099 249.505H353.932L341.362 248.875C346.563 243.342 353.628 235.228 356.572 232.584L356.573 232.587C356.817 236.424 358.163 241.39 360.081 246.741C359.431 247.579 358.755 248.509 358.099 249.505Z" fill="#A1BCE6"/>
<path d="M361.107 249.505H358.099C358.755 248.509 359.431 247.579 360.081 246.741C360.408 247.653 360.751 248.575 361.107 249.505" fill="#7A95D4"/>
<path d="M378.719 285.849C378.719 285.849 357.605 248.948 356.573 232.578C356.573 232.578 363.829 219.189 373.333 216.211C382.838 213.234 408.005 214.959 408.005 214.959C408.005 214.959 427.919 235.385 438.694 281.851L378.719 285.849" fill="#4870C0"/>
<path d="M378.719 285.849C378.719 285.849 376.126 281.315 372.712 274.722H380.916L381.251 279.309L381.707 285.649L378.719 285.849V285.849ZM391.355 285.006L390.994 278.866H391.01L390.754 274.798L390.75 274.722H395.59C397.089 274.722 398.305 273.506 398.305 272.007V270.059V266.611H402.92C404.372 266.611 405.547 265.435 405.547 263.983C405.547 262.531 404.372 261.355 402.92 261.355H394.859C396.769 259.737 398.776 257.605 400.777 255.204L405.881 256.873L410.689 251.744L408.133 245.264C413.136 237.817 417.022 230.712 417.498 229.198C417.591 228.903 417.665 228.609 417.724 228.315C424.311 239.092 432.848 256.638 438.694 281.851L404.57 284.126L398.52 284.529L391.355 285.006V285.006ZM386.22 249.505H382.379C380.96 245.466 379.778 241.805 378.921 239.052C379.289 239.141 379.666 239.222 380.052 239.297L378.64 238.145C377.842 235.55 377.395 233.97 377.395 233.97L378.719 227.676L379.492 227.925L380.344 228.198C380.707 232.124 380.707 234.985 380.707 234.985L382.39 236.052C382.642 233.476 382.594 231.028 382.403 228.86L386.322 230.12C386.322 230.12 386.322 230.12 386.322 230.118C386.322 230.118 386.329 230.088 386.343 230.027C386.601 228.945 389.027 218.667 389.342 214.489C390.425 214.47 391.505 214.462 392.57 214.462C400.757 214.462 408.005 214.959 408.005 214.959C404.507 215.677 389.89 242.641 386.22 249.505ZM381.134 249.505H361.108C358.651 243.109 356.856 237.071 356.573 232.578C356.573 232.578 359.232 227.67 363.441 223.136C362.85 224.427 361.85 228 365.613 232.99C365.645 233.035 365.681 233.079 365.715 233.125L367.318 231.794C369.141 234.171 372.149 236.9 376.939 238.489C378.182 242.177 379.64 245.933 381.134 249.505ZM376.491 237.132C374.249 236.002 370.682 233.91 368.232 231.038L370.354 229.28L372.685 231.832L375.948 235.408C376.123 235.979 376.304 236.556 376.491 237.132Z" fill="#C7D9F2"/>
<path d="M405.881 256.873L400.777 255.204C403.315 252.156 405.842 248.674 408.133 245.264L410.689 251.744L405.881 256.873" fill="#B1C2E8"/>
<path d="M389.892 443.806L379.174 445.804L369.658 421.906L380.367 419.924L389.892 443.806Z" fill="#F9A95E"/>
<path d="M383.585 427.991L383.537 427.871L383.543 427.869L383.592 427.991H383.585Z" fill="#CECDCC"/>
<path d="M385.616 433.082L383.585 427.991H383.593L385.626 433.079L385.616 433.082Z" fill="#263136"/>
<path d="M373.745 432.171L373.637 431.899L373.745 432.171Z" fill="#263136"/>
<path d="M375.103 435.577L373.745 432.171L373.637 431.899L383.537 427.871L383.585 427.991L385.616 433.082L375.103 435.577" fill="#CA8849"/>
<path d="M275.835 447.902L266.904 441.648L277.306 418.121L286.219 424.379L275.835 447.902Z" fill="#F9A95E"/>
<path d="M280.508 437.347L280.497 437.341L282.324 433.204L282.33 433.206L280.508 437.347ZM272.208 429.652L272.516 428.954L272.208 429.652Z" fill="#CECDCC"/>
<path d="M280.497 437.341L271.355 431.582L272.208 429.652L272.516 428.954L282.324 433.204L280.497 437.341" fill="#CA8849"/>
<path d="M425.04 322.163C425.04 322.163 409.667 326.878 390.818 332.65C361.227 341.729 323.078 353.418 322.545 353.602C306.807 390.145 287.52 428.342 287.52 428.342L269.668 421.013C269.668 421.013 288.894 356.846 294.508 340.804C303.477 315.199 399.276 298.113 399.276 298.113L425.04 322.163Z" fill="#1D2A30"/>
<path d="M286.627 435.068L264.642 425.543L267.498 415.501L291.421 426.416L286.627 435.068" fill="#4870C0"/>
<path d="M286.627 435.068L282.324 433.204L272.516 428.954L264.642 425.543L267.498 415.501L291.421 426.416L286.627 435.068" fill="#658ACF"/>
<path d="M261.298 438.77C261.2 438.456 261.274 438.115 261.494 437.871C261.582 437.733 261.735 437.654 261.899 437.659C262.662 437.689 263.957 439.251 264.795 440.495C262.856 440.067 261.57 439.437 261.298 438.77V438.77ZM264.919 436.59C264.997 436.464 265.155 436.338 265.506 436.445L265.623 436.487C265.812 436.567 265.958 436.723 266.027 436.915C266.371 437.742 265.757 439.362 265.322 440.299L265.181 440.087C264.723 438.952 264.526 437.217 264.919 436.59V436.59ZM265.53 441.006L265.408 440.865L265.262 440.734L265.265 440.732L265.414 440.852C265.487 440.701 267.014 438.018 266.449 436.621C266.291 436.256 266.016 436.008 265.634 435.894C265.218 435.728 264.761 435.882 264.499 436.243C264.105 436.8 264.133 437.92 264.349 438.969C263.619 438.061 262.702 437.14 261.934 437.105C261.603 437.095 261.293 437.258 261.11 437.533C260.748 437.912 260.639 438.468 260.828 438.957C261.198 439.587 261.791 440.054 262.488 440.269C263.384 440.634 264.318 440.9 265.271 441.066L265.35 441.115L265.427 441.069L265.53 441.006" fill="#4870C0"/>
<path d="M266.773 440.119L277.978 445.018C278.376 445.171 278.574 445.618 278.421 446.016L278.417 446.029L275.083 455.141C274.661 456.106 273.539 456.554 272.568 456.142C268.686 454.369 266.923 453.329 262.008 451.134C258.986 449.803 252.887 447.457 249.041 444.988C245.196 442.517 247.741 438.783 249.586 439.49C253.973 441.147 261.024 440.919 264.805 439.942C265.462 439.78 266.155 439.843 266.773 440.119Z" fill="#1D2A30"/>
<path d="M372.618 444.668C372.388 444.432 372.297 444.094 372.38 443.777C372.396 443.615 372.496 443.474 372.643 443.405C373.337 443.082 375.202 443.88 376.515 444.603C374.594 445.107 373.163 445.136 372.618 444.668V444.668ZM374.842 441.072C374.854 440.923 374.939 440.741 375.298 440.676L375.421 440.659C375.626 440.644 375.827 440.715 375.976 440.857C376.661 441.434 376.854 443.156 376.895 444.188L376.672 444.063C375.747 443.264 374.779 441.808 374.842 441.072ZM377.842 444.683V444.672C377.842 444.481 377.659 441.402 376.524 440.422C376.215 440.169 375.705 440.065 375.313 440.137C374.867 440.181 374.455 440.519 374.387 440.962C374.291 441.637 374.788 442.617 375.46 443.452C374.396 442.978 373.14 442.576 372.44 442.896C372.143 443.038 371.932 443.324 371.894 443.652C371.746 444.156 371.898 444.699 372.29 445.048C372.905 445.438 373.645 445.584 374.363 445.456C375.327 445.372 376.277 445.182 377.202 444.892L377.294 444.901L377.34 444.825L377.614 444.722L377.842 444.694V444.683" fill="#4870C0"/>
<path d="M378.105 443.365L390.308 442.602C390.733 442.557 391.115 442.864 391.16 443.288L391.161 443.301L392.359 452.929C392.425 453.982 391.632 454.891 390.58 454.97C386.317 455.166 384.272 455.047 378.899 455.339C375.602 455.537 369.104 456.238 364.555 455.797C360.006 455.357 360.564 450.872 362.528 450.657C367.187 450.127 373.357 446.704 376.272 444.105C376.784 443.662 377.428 443.401 378.105 443.365" fill="#1D2A30"/>
<path d="M357.839 222.142C360.476 220.975 363.612 222.142 363.612 222.142C363.612 222.142 364.754 228.242 371.693 228.632C372.532 228.681 373.455 228.644 374.464 228.51C383.87 227.223 382.838 213.234 382.838 213.234C378.936 213.526 375.631 212.384 373.042 210.877V210.864C368.922 208.47 366.625 205.128 366.625 205.128L357.839 222.142" fill="#F9A95E"/>
<path d="M372.145 227.407L370.354 226.556L363.734 222.611C365.86 221.636 367.786 220.029 369.266 217.736C370.875 215.237 371.613 212.792 371.825 210.097C372.211 210.361 372.616 210.617 373.042 210.864V210.877C373.744 215.444 374.067 221.723 372.145 227.407" fill="#CA8849"/>
<path d="M351.273 191.219C355.919 193.234 354.941 198.323 347.029 207.496C342.319 203.304 339.887 193.898 342.441 190.934C344.996 187.969 347.226 189.481 351.273 191.219Z" fill="#1D2A30"/>
<path d="M370.433 195.539C371.892 205.687 373.252 211.544 369.266 217.736C363.259 227.043 349.94 225.02 345.477 215.509C341.48 206.965 339.757 191.802 348.737 185.793C355.133 181.466 363.824 183.143 368.152 189.537C369.367 191.334 370.148 193.388 370.433 195.539Z" fill="#F9A95E"/>
<path d="M356.04 201.383C356.208 202.198 355.91 202.949 355.376 203.057C354.845 203.164 354.285 202.6 354.115 201.785C353.948 200.97 354.236 200.222 354.763 200.104C355.291 199.986 355.817 200.592 356.04 201.383" fill="#1D2A30"/>
<path d="M346.773 203.315C346.941 204.13 346.642 204.881 346.11 204.989C345.577 205.096 345.007 204.537 344.833 203.71C344.66 202.884 344.964 202.143 345.497 202.036C346.029 201.929 346.604 202.499 346.773 203.315Z" fill="#1D2A30"/>
<path d="M349.876 203.072C349.42 205.766 348.594 208.385 347.422 210.854C349.174 211.896 351.474 210.773 351.474 210.773L349.876 203.072" fill="#EC782F"/>
<path d="M364.603 187.485C360.251 190.06 361.871 194.991 370.877 203.081C375.023 198.326 376.249 188.677 373.328 186.077C370.408 183.478 368.406 185.243 364.603 187.485Z" fill="#1D2A30"/>
<path d="M376.864 202.565C376.669 205.138 375.462 207.528 373.507 209.213C370.898 211.415 368.183 209.421 367.718 206.223C367.302 203.337 368.165 198.713 371.349 197.75C374.534 196.788 377.089 199.408 376.864 202.565" fill="#F9A95E"/>
<path d="M360.198 196.586C360.054 196.715 359.852 196.758 359.667 196.698C358.43 196.233 357.046 196.381 355.934 197.095C355.709 197.271 355.385 197.229 355.211 197.004C355.035 196.778 355.076 196.454 355.301 196.28L355.302 196.278C356.685 195.339 358.437 195.129 360.001 195.716C360.274 195.801 360.424 196.091 360.339 196.363L360.335 196.375L360.198 196.586" fill="#1D2A30"/>
<path d="M341.731 199.089L341.457 198.949C341.299 198.711 341.363 198.391 341.601 198.233L341.609 198.226C342.996 197.284 344.754 197.076 346.323 197.668C346.583 197.784 346.7 198.09 346.583 198.35V198.351C346.461 198.607 346.161 198.721 345.9 198.611C344.649 198.18 343.267 198.367 342.173 199.113C342.03 199.17 341.868 199.161 341.731 199.089" fill="#1D2A30"/>
<path d="M372.249 187.253C372.249 187.253 374.485 182.804 368.61 178.958C362.733 175.112 344.945 178.118 338.575 186.17C332.204 194.224 337.733 199.151 337.733 199.151C337.733 199.151 337.254 196.844 338.335 195.233C338.335 195.233 339.386 197.49 341.408 198.394C343.432 199.297 342.084 199.012 342.084 199.012C342.084 199.012 341.759 196.026 344.013 193.141C344.013 193.141 346.74 195.834 349.448 196.41C349.448 196.41 350.112 193.503 352.397 192.06C352.397 192.06 353.507 195.606 355.198 195.949C355.198 195.949 355.041 193.043 359.007 190.978C359.007 190.978 359.442 193.743 360.547 194.464C360.547 194.464 362.414 188.214 372.249 187.253" fill="#1D2A30"/>
<path d="M354.485 213.963L354.501 213.938C354.693 213.645 356.544 211.02 359.976 210.061C360.227 209.99 360.373 209.73 360.302 209.48C360.232 209.229 359.972 209.083 359.721 209.154C355.689 210.297 353.721 213.415 353.69 213.458C353.55 213.678 353.615 213.969 353.835 214.109C354.055 214.248 354.345 214.183 354.485 213.963Z" fill="#1D2A30"/>
<path d="M350.336 202.891L350.011 202.953C350.481 205.43 352.387 207.241 354.532 207.25C354.761 207.25 354.992 207.228 355.222 207.184C357.288 206.787 358.636 204.761 358.633 202.467C358.633 202.097 358.599 201.719 358.526 201.34C358.057 198.862 356.15 197.051 354.006 197.043C353.778 197.043 353.545 197.065 353.315 197.107C351.25 197.506 349.902 199.53 349.904 201.825C349.904 202.194 349.939 202.572 350.011 202.953L350.336 202.891L350.66 202.83C350.596 202.489 350.565 202.153 350.565 201.825C350.567 199.771 351.759 198.069 353.438 197.758C353.628 197.722 353.818 197.704 354.006 197.704C355.753 197.696 357.458 199.239 357.877 201.463C357.942 201.802 357.973 202.139 357.973 202.467C357.97 204.52 356.778 206.222 355.1 206.535C354.909 206.57 354.72 206.588 354.532 206.588C352.784 206.597 351.081 205.053 350.66 202.83L350.336 202.891" fill="#1D2A30"/>
<path d="M339.542 204.759L339.218 204.82C339.688 207.299 341.594 209.11 343.738 209.117C343.968 209.117 344.199 209.096 344.43 209.052C346.495 208.655 347.843 206.63 347.84 204.334C347.84 203.965 347.806 203.588 347.735 203.209C347.264 200.731 345.357 198.92 343.213 198.911C342.985 198.911 342.754 198.932 342.522 198.976C340.456 199.373 339.109 201.399 339.111 203.694C339.111 204.063 339.146 204.44 339.218 204.82L339.542 204.759L339.867 204.697C339.803 204.358 339.772 204.022 339.772 203.694C339.774 201.64 340.966 199.938 342.645 199.626C342.835 199.591 343.025 199.573 343.213 199.573C344.962 199.564 346.665 201.107 347.085 203.331C347.149 203.671 347.18 204.007 347.18 204.334C347.177 206.388 345.985 208.091 344.307 208.403C344.116 208.439 343.927 208.457 343.738 208.457C341.991 208.464 340.288 206.922 339.867 204.697L339.542 204.759" fill="#1D2A30"/>
<path d="M350.506 202.607C350.479 202.595 349.814 202.185 348.949 202.18C348.367 202.175 347.675 202.396 347.151 203.065C347.038 203.208 347.062 203.415 347.205 203.529C347.348 203.642 347.555 203.619 347.668 203.475C348.072 202.974 348.511 202.847 348.949 202.841C349.271 202.841 349.582 202.924 349.809 203.011C349.923 203.053 350.015 203.096 350.077 203.127L350.146 203.164L350.165 203.174C350.322 203.268 350.524 203.218 350.619 203.061C350.713 202.905 350.663 202.702 350.506 202.607" fill="#1D2A30"/>
<path d="M358.291 201.719L367.71 199.089C367.886 199.04 367.988 198.858 367.939 198.682C367.89 198.507 367.708 198.404 367.532 198.453L358.113 201.083C357.937 201.132 357.834 201.314 357.883 201.49C357.934 201.665 358.116 201.768 358.291 201.719" fill="#1D2A30"/>
<path d="M323.057 353.441L323.137 341.317C324.25 335.935 326.785 329.954 332.325 325.978C342.96 318.347 361.19 313.971 374.291 311.67C352.047 317.036 323.783 324.042 329.921 345.304C330.408 346.99 331.007 348.828 331.7 350.783C329.567 351.438 327.746 351.998 326.3 352.443C324.766 352.914 323.659 353.255 323.057 353.441" fill="#182124"/>
<path d="M377.134 310.983L379.77 294.473L378.719 285.849L438.694 281.851L439.64 291.507C439.64 291.507 446.774 325.21 441.827 334.364C432.993 350.705 396.587 350.048 364.962 350.048C371.838 370.106 385.626 421.012 385.626 421.012L369.089 428.487C369.089 428.487 337.174 370.426 329.921 345.304C323.518 323.124 354.552 316.458 377.134 310.983" fill="#1D2A30"/>
<path d="M389.342 425.509L367.148 434.539L361.978 425.468L386.521 416.029L389.342 425.509" fill="#4870C0"/>
<path d="M367.148 434.539L361.978 425.468L386.521 416.029L389.342 425.509L383.537 427.871L373.637 431.899L371.145 432.913L367.148 434.539Z" fill="#658ACF"/>
<path d="M419.897 292.073L440.335 290.849L439.103 283.259L419.118 284.54L419.897 292.073" fill="#100F0D"/>
<path d="M382.113 286.913L378.719 287.132L379.771 294.473L382.707 294.296L382.113 286.913Z" fill="#100F0D"/>
<path d="M385.098 294.154L417.498 292.216L416.891 284.684L384.336 286.771L385.098 294.154" fill="#100F0D"/>
<path d="M400.622 293.124L400.57 292.497L394.754 292.996L394.619 293.001C393.821 293.002 393.137 292.387 393.068 291.574L392.833 288.835L392.828 288.699C392.827 287.899 393.441 287.216 394.253 287.148L400.069 286.649L400.204 286.644C401.003 286.643 401.686 287.257 401.754 288.07L401.99 290.81L401.995 290.946C401.995 291.745 401.381 292.429 400.57 292.497L400.622 293.124L400.676 293.749C402.143 293.623 403.251 292.394 403.251 290.946L403.241 290.704L403.006 287.962C402.879 286.495 401.652 285.388 400.204 285.388L399.962 285.398L394.147 285.896C392.68 286.022 391.572 287.25 391.572 288.699L391.582 288.941L391.817 291.682C391.944 293.149 393.171 294.257 394.619 294.257L394.861 294.247L400.676 293.749L400.622 293.124" fill="white"/>
<path d="M398.835 290.445L401.239 290.117C401.583 290.071 401.823 289.754 401.777 289.41C401.73 289.067 401.414 288.826 401.07 288.872L398.666 289.2C398.322 289.247 398.082 289.563 398.128 289.907C398.175 290.251 398.491 290.491 398.835 290.445Z" fill="white"/>
<path d="M382.379 249.505H381.134C379.64 245.933 378.182 242.177 376.939 238.489C377.569 238.697 378.229 238.886 378.921 239.052C379.778 241.805 380.96 245.466 382.379 249.505V249.505ZM378.64 238.145L378.581 238.096C378.581 238.096 377.742 237.764 376.491 237.132C376.304 236.556 376.123 235.979 375.948 235.408L376.878 236.427V236.424L376.879 236.425L377.184 234.968L377.395 233.97C377.395 233.97 377.842 235.55 378.64 238.145" fill="#9CACD3"/>
<path d="M377.703 237.975L380.828 233.888H382.511L384.909 236.425L385.155 239.297C382.205 240.618 377.703 239.312 377.703 239.312V237.975" fill="#1D3557"/>
<path d="M380.707 234.985C380.707 234.985 380.707 227.037 379.026 219.466L380.707 220.186C380.707 220.186 383.232 227.397 382.39 236.052L380.707 234.985Z" fill="#1D3557"/>
<path d="M378.581 238.096C378.581 238.096 366.767 233.423 365.628 225.762L364.803 227.213C364.803 227.213 367.617 236.894 380.052 239.297L378.581 238.096" fill="#1D3557"/>
<path d="M383.503 237.375C383.503 237.375 387.492 236.888 389.115 233.165C391.922 226.724 389.081 217.265 396.052 213.084L399.953 214.462C399.953 214.462 396.507 216.881 395.425 221.025C394.015 226.431 392.421 239.798 383.503 239.297V237.375" fill="#1D3557"/>
<path d="M380.712 210.892L374.93 225.113L374.464 228.51L370.354 226.556L363.734 222.611C363.734 222.611 360.802 226.714 365.714 233.125L370.354 229.279L376.878 236.427L378.719 227.676L386.322 230.12C386.322 230.12 389.376 217.372 389.376 213.711L380.712 210.892" fill="#4870C0"/>
<path d="M363.441 223.135C363.583 222.828 363.701 222.649 363.725 222.614C363.727 222.613 363.73 222.612 363.732 222.611C363.732 222.612 363.732 222.612 363.732 222.612C363.721 222.629 363.599 222.805 363.451 223.125C363.447 223.129 363.445 223.133 363.441 223.135" fill="#FAFAFA"/>
<path d="M365.613 232.99C361.85 228 362.849 224.427 363.441 223.136C363.445 223.133 363.447 223.129 363.451 223.126C362.86 224.403 361.84 227.981 365.613 232.99Z" fill="#EBF3FB"/>
<path d="M363.733 222.612C363.733 222.612 363.733 222.612 363.733 222.611C363.734 222.611 363.734 222.611 363.734 222.611C363.734 222.611 363.734 222.611 363.733 222.612Z" fill="#ECD0B9"/>
<path d="M363.725 222.614C363.729 222.61 363.73 222.608 363.73 222.608L363.734 222.61C363.734 222.61 363.734 222.61 363.733 222.61C363.73 222.612 363.728 222.613 363.725 222.614Z" fill="#FDDEC1"/>
<path d="M386.322 230.118C386.324 230.109 386.332 230.079 386.343 230.028C386.329 230.088 386.322 230.118 386.322 230.118Z" fill="#EBF3FB"/>
<path d="M374.464 228.51L374.461 228.509L374.624 227.336L374.464 228.51Z" fill="#FDDEC1"/>
<path d="M379.784 213.175C379.783 213.175 379.782 213.174 379.78 213.174L380.707 210.892L380.712 210.893L379.784 213.175Z" fill="#FAFAFA"/>
<path d="M377.555 218.657L379.78 213.174C379.782 213.174 379.783 213.175 379.784 213.175L377.555 218.657Z" fill="#FDDEC1"/>
<path d="M376.879 236.425L376.878 236.424L376.879 236.421V236.425Z" fill="#DAE1EF"/>
<path d="M376.878 236.424L369.029 227.201L365.711 233.12C365.678 233.077 365.644 233.033 365.613 232.99C361.84 227.981 362.86 224.403 363.451 223.126C363.599 222.805 363.721 222.629 363.733 222.612C363.734 222.611 363.734 222.611 363.734 222.611L370.353 226.557L374.46 228.514L374.461 228.509L374.464 228.51L374.625 227.336L374.935 225.111L377.555 218.657L379.784 213.175L380.712 210.893L389.373 213.712C389.373 217.19 386.616 228.883 386.343 230.027C386.332 230.079 386.324 230.109 386.322 230.118L376.478 225.426L376.879 236.422L376.878 236.424" fill="#B4CAEC"/>
<path d="M379.492 227.925L378.719 227.676L379.492 227.925Z" fill="#BABFCE"/>
<path d="M376.879 236.425V236.422L377.184 234.968L376.879 236.425Z" fill="#ACB2BD"/>
<path d="M376.879 236.422L376.478 225.426L386.322 230.118L379.492 227.925L378.719 227.676L378.714 227.675L377.184 234.968L376.879 236.422" fill="#8AA1D3"/>
<path d="M372.685 231.832L370.354 229.28V229.279L372.685 231.832Z" fill="#BABFCE"/>
<path d="M376.879 236.425L376.878 236.424L376.879 236.425Z" fill="#ACB2BD"/>
<path d="M376.878 236.424L372.685 231.832L370.354 229.279V229.28L370.353 229.279L365.711 233.12L369.029 227.201L376.878 236.424" fill="#8AA1D3"/>
<path d="M345.225 250.156L335.488 249.058C335.488 249.058 333.244 247.196 330.84 246.875C328.436 246.554 317.86 247.496 316.577 247.987C315.295 248.478 315.776 258.564 316.577 258.73C317.379 258.895 329.878 259.045 331 258.73C332.123 258.414 334.847 255.368 334.847 255.368L343.383 256.873L345.225 250.156" fill="#F9A95E"/>
<path d="M408.005 214.959C403.996 215.783 385.381 251.082 385.381 251.082L337.561 248.685L336.852 256.873C336.852 256.873 379.713 266.205 389.372 264.448C399.031 262.692 416.456 232.517 417.498 229.198C419.864 221.667 410.689 214.408 408.005 214.959" fill="#4870C0"/>
<path d="M394.859 261.354H359.69C359.374 261.299 359.062 261.244 358.746 261.187L361.889 261.19V261.181L384.109 261.19V258.896L385.941 257.064H383.7V256.241V251.933H387.698V250.985V250.209H389.69V249.505H386.22C389.89 242.641 404.507 215.677 408.005 214.959C408.102 214.939 408.206 214.929 408.319 214.929C410.983 214.929 417.889 220.404 417.884 226.688C417.884 227.514 417.763 228.354 417.498 229.198C417.022 230.712 413.136 237.817 408.133 245.264C405.842 248.674 403.315 252.156 400.777 255.204C398.776 257.605 396.769 259.737 394.859 261.354V261.354ZM338.64 253.656H337.13L337.31 251.588H338.64V253.656ZM337.37 250.887L337.561 248.685L353.932 249.505H338.64V250.381L337.37 250.887Z" fill="#B4CAEC"/>
<path d="M371.194 122.759H238.724C235.94 122.759 233.683 125.017 233.683 127.801C233.683 130.584 235.94 132.841 238.724 132.841H371.194C373.979 132.841 376.236 130.584 376.236 127.801C376.236 125.017 373.979 122.759 371.194 122.759Z" fill="#4870C0"/>
<path d="M371.194 132.841H238.724C235.94 132.841 233.683 130.584 233.683 127.801C233.683 125.017 235.94 122.759 238.724 122.759H371.194C373.979 122.759 376.236 125.017 376.236 127.801C376.236 128.115 376.207 128.424 376.152 128.723C375.719 131.067 373.664 132.841 371.194 132.841Z" fill="#B4CAEC"/>
<path d="M318.685 123.889H238.83C236.669 123.889 234.918 125.641 234.918 127.801C234.918 129.961 236.669 131.712 238.83 131.712H318.685C320.846 131.712 322.597 129.961 322.597 127.801C322.597 125.641 320.846 123.889 318.685 123.889Z" fill="#1D3557"/>
<path d="M275.591 109.177C275.591 108.318 275.016 107.829 273.917 107.829H272.458V110.525H273.917C275.016 110.525 275.591 110.036 275.591 109.177ZM276.451 109.177C276.451 110.482 275.506 111.272 273.944 111.272H272.458V113.092H271.6V107.082H273.944C275.506 107.082 276.451 107.872 276.451 109.177" fill="#1D2A30"/>
<path d="M281.703 109.177C281.703 108.318 281.128 107.829 280.029 107.829H278.569V110.533H280.029C281.128 110.533 281.703 110.036 281.703 109.177ZM281.728 113.092L280.432 111.246C280.312 111.254 280.183 111.263 280.054 111.263H278.569V113.092H277.71V107.082H280.054C281.616 107.082 282.561 107.872 282.561 109.177C282.561 110.104 282.08 110.775 281.24 111.075L282.664 113.092H281.728" fill="#1D2A30"/>
<path d="M288.989 110.086C288.989 108.756 287.993 107.778 286.663 107.778C285.315 107.778 284.319 108.756 284.319 110.086C284.319 111.418 285.315 112.396 286.663 112.396C287.993 112.396 288.989 111.418 288.989 110.086ZM283.46 110.086C283.46 108.327 284.817 107.013 286.663 107.013C288.492 107.013 289.848 108.318 289.848 110.086C289.848 111.855 288.492 113.161 286.663 113.161C284.817 113.161 283.46 111.847 283.46 110.086Z" fill="#1D2A30"/>
<path d="M295.323 110.052H296.147V112.396C295.547 112.904 294.714 113.161 293.873 113.161C292.026 113.161 290.67 111.865 290.67 110.086C290.67 108.309 292.026 107.013 293.889 107.013C294.842 107.013 295.65 107.331 296.199 107.94L295.666 108.472C295.169 107.991 294.602 107.778 293.924 107.778C292.532 107.778 291.528 108.747 291.528 110.086C291.528 111.409 292.532 112.396 293.915 112.396C294.422 112.396 294.894 112.284 295.323 112.011V110.052" fill="#1D2A30"/>
<path d="M301.777 109.177C301.777 108.318 301.201 107.829 300.102 107.829H298.643V110.533H300.102C301.201 110.533 301.777 110.036 301.777 109.177ZM301.803 113.092L300.505 111.246C300.386 111.254 300.257 111.263 300.129 111.263H298.643V113.092H297.784V107.082H300.129C301.691 107.082 302.636 107.872 302.636 109.177C302.636 110.104 302.155 110.775 301.313 111.075L302.739 113.092H301.803Z" fill="#1D2A30"/>
<path d="M308.386 112.345V113.092H304.024V107.082H308.265V107.829H304.883V109.676H307.896V110.404H304.883V112.345H308.386" fill="#1D2A30"/>
<path d="M309.225 112.405L309.542 111.735C309.988 112.139 310.753 112.431 311.526 112.431C312.564 112.431 313.01 112.027 313.01 111.503C313.01 110.036 309.37 110.963 309.37 108.73C309.37 107.803 310.091 107.013 311.671 107.013C312.376 107.013 313.106 107.201 313.603 107.545L313.319 108.233C312.797 107.897 312.204 107.743 311.671 107.743C310.65 107.743 310.212 108.172 310.212 108.696C310.212 110.164 313.852 109.246 313.852 111.452C313.852 112.371 313.113 113.161 311.526 113.161C310.606 113.161 309.706 112.852 309.225 112.405" fill="#1D2A30"/>
<path d="M314.554 112.405L314.872 111.735C315.319 112.139 316.082 112.431 316.855 112.431C317.895 112.431 318.341 112.027 318.341 111.503C318.341 110.036 314.701 110.963 314.701 108.73C314.701 107.803 315.422 107.013 317.002 107.013C317.705 107.013 318.435 107.201 318.934 107.545L318.65 108.233C318.126 107.897 317.533 107.743 317.002 107.743C315.979 107.743 315.542 108.172 315.542 108.696C315.542 110.164 319.182 109.246 319.182 111.452C319.182 112.371 318.444 113.161 316.855 113.161C315.937 113.161 315.035 112.852 314.554 112.405Z" fill="#1D2A30"/>
<path d="M326.632 107.082V107.666L324.202 113.092H323.292L325.671 107.829H322.923V108.902H322.099V107.082H326.632Z" fill="#1D2A30"/>
<path d="M331.257 110.086C331.257 108.55 330.604 107.778 329.669 107.778C328.724 107.778 328.072 108.55 328.072 110.086C328.072 111.624 328.724 112.396 329.669 112.396C330.604 112.396 331.257 111.624 331.257 110.086ZM327.213 110.086C327.213 108.129 328.261 107.013 329.669 107.013C331.068 107.013 332.115 108.129 332.115 110.086C332.115 112.044 331.068 113.161 329.669 113.161C328.261 113.161 327.213 112.044 327.213 110.086Z" fill="#1D2A30"/>
<path d="M338.888 111.503C338.888 110.791 338.561 110.353 338.046 110.353C337.522 110.353 337.205 110.782 337.205 111.503C337.205 112.225 337.522 112.654 338.046 112.654C338.561 112.654 338.888 112.216 338.888 111.503ZM336.656 111.503C336.656 110.525 337.213 109.864 338.046 109.864C338.879 109.864 339.445 110.525 339.445 111.503C339.445 112.483 338.879 113.143 338.046 113.143C337.213 113.143 336.656 112.483 336.656 111.503ZM337.865 107.082H338.527L334.423 113.092H333.762L337.865 107.082ZM335.084 108.671C335.084 107.949 334.767 107.52 334.243 107.52C333.728 107.52 333.401 107.957 333.401 108.671C333.401 109.383 333.728 109.821 334.243 109.821C334.767 109.821 335.084 109.392 335.084 108.671ZM332.843 108.671C332.843 107.691 333.41 107.03 334.243 107.03C335.076 107.03 335.633 107.682 335.633 108.671C335.633 109.657 335.076 110.31 334.243 110.31C333.41 110.31 332.843 109.649 332.843 108.671Z" fill="#1D2A30"/>
<path d="M144.543 261.171V257.064H141.785L144.543 255.46H142.476L145.233 253.656H147.844V251.588H144.814L147.844 250.381V245.902H144.814V242.97H141.785L144.814 241.954V239.868H142.648L144.42 238.095L145.955 236.56H192.904V238.661H196.006L192.56 240.213V241.954H198.894V245.187H201.693L198.894 246.59V250.209H196.902V251.933H192.904V257.064H195.145L193.312 258.896V261.19L144.543 261.171" fill="#4870C0"/>
<path d="M193.312 261.19L171.092 261.181V258.896L172.925 257.064H192.904H194.012C194.086 257.345 194.203 257.61 194.355 257.853L193.312 258.896H171.092V259.743L193.312 258.896V261.19V261.19ZM170.684 257.064V253.478L192.879 251.934L192.904 252.047V256.241L170.684 257.064V257.064ZM192.879 251.933H170.684H174.682V250.209H176.674V247.365V246.59L179.475 245.187H191.392L192.498 250.209H174.682L192.636 250.835L192.879 251.933V251.933ZM176.674 245.187V241.954H190.678L191.289 244.719L176.674 245.187ZM170.34 241.954V240.213L173.786 238.661H189.952L190.518 241.222L170.34 241.954V241.954ZM142.648 239.868L144.42 238.095L145.955 236.56H189.489L189.805 237.994L170.684 238.661V236.56H145.955L144.42 238.095L142.648 239.868" fill="#C7D9F2"/>
<path d="M171.092 261.19L144.543 261.171L171.092 261.181V261.19" fill="#E8E8E7"/>
<path d="M171.092 261.181L144.543 261.171V257.064H141.785L144.543 255.46H142.476L145.233 253.656H147.844V251.588H144.814L147.844 250.381V245.902H144.814L176.674 245.187H144.814V245.902V242.97H141.785L144.814 241.954V239.868H142.648L144.42 238.095L145.955 236.56H170.684V238.661H173.786L170.34 240.213V241.954H176.674V245.187H179.475L176.674 246.59H160.914L176.674 247.365V250.209H174.682V251.933H170.684L170.587 253.484L170.684 253.478V257.064H172.925L171.092 258.896V261.181V261.181ZM144.543 257.064V257.578L163.235 257.064H144.543ZM144.543 255.46L170.34 256.241V255.46H144.543ZM147.844 251.588V252.363L171.092 251.588H147.844ZM147.844 249.691V250.381L170.684 250.209L147.844 249.691V249.691ZM144.814 241.954L167.955 242.712L170.34 241.954H144.814ZM144.814 239.868V240.558L167.352 239.868H144.814Z" fill="#B1C2E8"/>
<path d="M190.678 241.954H170.34L190.518 241.222L190.678 241.954Z" fill="#B1C2E8"/>
<path d="M170.684 253.478V251.933H192.879V251.935L170.684 253.478Z" fill="#B1C2E8"/>
<path d="M170.587 253.484L170.684 251.933V253.478L170.587 253.484Z" fill="#9EAED5"/>
<path d="M192.636 250.835L174.682 250.209H192.498L192.636 250.835" fill="#B1C2E8"/>
<path d="M192.904 257.064H170.684L192.904 256.241V257.064Z" fill="#B1C2E8"/>
<path d="M171.092 259.743V258.897H193.312L171.092 259.743Z" fill="#B1C2E8"/>
<path d="M191.392 245.187H176.674L191.289 244.719L191.392 245.187" fill="#B1C2E8"/>
<path d="M189.952 238.661H170.684L189.805 237.994L189.952 238.661Z" fill="#B1C2E8"/>
<path d="M144.814 240.558V239.868H167.352L144.814 240.558Z" fill="#9EAED5"/>
<path d="M167.955 242.712L144.814 241.954H170.34L167.955 242.712Z" fill="#9EAED5"/>
<path d="M144.814 245.902V245.187H176.674L144.814 245.902Z" fill="#9EAED5"/>
<path d="M176.674 247.365L160.914 246.59H176.674V247.365Z" fill="#9EAED5"/>
<path d="M147.844 250.381V249.691L170.684 250.209L147.844 250.381" fill="#9EAED5"/>
<path d="M147.844 252.363V251.588H171.092L147.844 252.363Z" fill="#9EAED5"/>
<path d="M170.34 256.241L144.543 255.46H170.34V256.241Z" fill="#9EAED5"/>
<path d="M144.543 257.578V257.064H163.235L144.543 257.578Z" fill="#9EAED5"/>
<path d="M275.962 261.967L276.994 258.068H319.386L338.907 260.018L339.65 261.967H275.962Z" fill="#1D2A30"/>
<path d="M319.386 261.354H293.756V259.288L285.627 258.068H319.386V261.354Z" fill="#16191B"/>
<path d="M184.709 214.877L193.985 256.955C194.288 258.34 195.637 259.346 196.999 259.346H227.013C228.362 259.346 229.23 258.088 228.916 256.702L219.652 214.945C219.338 213.572 218 212.888 216.64 212.888H186.624C185.263 212.888 184.408 213.503 184.709 214.877" fill="#1D2A30"/>
<path d="M228.893 256.579H228.888L225.828 242.783L228.893 256.579" fill="white"/>
<path d="M198.963 259.346H198.713C197.35 259.346 196.001 258.34 195.7 256.955L186.423 214.877C186.122 213.503 186.978 212.888 188.338 212.888H216.631C217.993 212.888 219.342 213.572 219.643 214.945L225.828 242.783L228.888 256.579H198.963V259.346Z" fill="#758288"/>
<path d="M198.963 256.579V260.479C198.963 261.479 200.141 261.888 201.13 261.888H270.55C271.55 261.888 272.754 261.479 272.754 260.479V256.579H198.963Z" fill="#1D2A30"/>
<path d="M236.865 261.354H199.386C199.127 261.137 198.963 260.848 198.963 260.479V256.579H256.802H236.448V260.479C236.448 260.848 236.61 261.137 236.865 261.354Z" fill="#45555C"/>
<path d="M249.015 261.354H236.865C236.61 261.137 236.448 260.848 236.448 260.479V256.579H256.802L249.015 259.288V261.354Z" fill="#282E32"/>
<path d="M227.232 253.484L218.812 215.589H188.112L196.467 253.484H227.232Z" fill="#1D3557"/>
<path d="M310.87 239.403C311.058 241.463 309.552 243.136 307.504 243.136H242.565C240.505 243.136 238.686 241.463 238.498 239.403L234.641 197.828C234.599 197.4 234.631 196.992 234.725 196.616C235.09 195.152 236.377 194.097 238.008 194.097H302.946C305.005 194.097 306.824 195.77 307.013 197.828L310.87 239.403Z" fill="#1D2A30"/>
<path d="M307.274 243.136H273.72L276.094 217.636H262.66L259.691 243.136H242.565C240.505 243.136 238.686 241.463 238.498 239.403L234.641 197.828C234.63 197.701 234.623 197.576 234.623 197.453C234.623 197.16 234.658 196.88 234.725 196.616H299.433C301.483 196.616 303.301 198.289 303.5 200.348L307.357 241.923C307.4 242.351 307.367 242.759 307.274 243.136" fill="#16191B"/>
<path d="M262.66 217.636H276.094L272.513 256.099L293.756 259.288V261.967H249.015V259.288L258.181 256.099L262.66 217.636Z" fill="#1D2A30"/>
<path d="M266.141 261.355H266.099L258.181 261.12L262.66 217.635H276.094L266.141 261.356" fill="#304047"/>
<path d="M231.284 456.295H223.838L210.462 270.059H220.339L231.284 456.295Z" fill="#1D2A30"/>
<path d="M222.709 440.589L221.772 427.555H221.774L222.71 440.589H222.709ZM230.35 440.417L229.594 427.555H229.597L230.354 440.417H230.35V440.417ZM229.578 427.241H229.575L228.656 411.589H228.657L229.578 427.241ZM221.752 427.241H221.749L220.624 411.589H220.628L221.752 427.241ZM228.638 411.275H228.637L227.734 395.899L228.638 411.275ZM220.605 411.275H220.601L216.575 355.258H216.582L220.605 411.275V411.275ZM216.559 354.944H216.552L211.115 279.309L210.778 274.722H210.796L210.823 275.088L216.559 354.944" fill="white"/>
<path d="M228.657 411.589H228.656L228.637 411.275H228.638L228.657 411.589ZM220.628 411.589H220.624L220.601 411.275H220.605L220.628 411.589Z" fill="#F0F0F0"/>
<path d="M229.597 427.555H229.594L229.575 427.241H229.578L229.597 427.555ZM221.774 427.555H221.772L221.749 427.241H221.752L221.774 427.555Z" fill="#F0F0F0"/>
<path d="M216.582 355.258H216.574L216.552 354.945H216.559L216.582 355.258Z" fill="#F0F0F0"/>
<path d="M231.287 456.295H223.838L222.709 440.589H222.71L223.838 456.295H231.284L230.35 440.417H230.354L231.287 456.295" fill="#F9F9F9"/>
<path d="M231.284 456.295H223.838L222.71 440.589L221.774 427.555L221.752 427.241L220.628 411.589L220.605 411.275L216.582 355.258L216.56 354.944L210.823 275.088L211.115 278.866H220.846L220.874 279.309L227.734 395.899L228.637 411.275L228.656 411.589L229.575 427.241L229.594 427.555L230.35 440.417L231.284 456.295" fill="#304047"/>
<path d="M220.873 278.866H220.856L220.618 274.798L220.873 278.866" fill="#CECDCC"/>
<path d="M220.856 278.866H220.846L220.599 274.722H220.613L220.618 274.797L220.856 278.866Z" fill="#182124"/>
<path d="M210.823 275.088L210.796 274.723H210.797L210.823 275.088Z" fill="#CECDCB"/>
<path d="M220.846 278.866H211.115L210.823 275.088L210.797 274.722H220.599L220.846 278.866Z" fill="#263136"/>
<path d="M322.378 456.295H314.933L313.717 270.059H323.595L322.378 456.295Z" fill="#1D2A30"/>
<path d="M322.493 439.564H322.487L322.67 411.589H322.676L322.493 439.564V439.564ZM322.679 411.275H322.671L323.044 354.178C323.047 354.179 323.049 354.181 323.052 354.182L322.679 411.275ZM323.055 353.811C323.052 353.809 323.049 353.808 323.047 353.807L323.049 353.444C323.052 353.442 323.055 353.442 323.057 353.441L323.055 353.811ZM323.272 319.348L323.394 300.74H323.402L323.281 319.344C323.278 319.346 323.276 319.347 323.272 319.348" fill="white"/>
<path d="M322.676 411.589H322.67L322.671 411.276H322.679L322.676 411.589Z" fill="#F0F0F0"/>
<path d="M323.052 354.182C323.049 354.181 323.047 354.179 323.044 354.178L323.047 353.807C323.049 353.808 323.052 353.81 323.055 353.812L323.052 354.182Z" fill="#F0F0F0"/>
<path d="M322.384 456.295H314.934H322.377L322.487 439.564H322.493L322.384 456.295" fill="#F9F9F9"/>
<path d="M323.129 341.357L323.271 319.348C323.275 319.347 323.278 319.345 323.28 319.344L323.137 341.317C323.134 341.329 323.131 341.343 323.129 341.357" fill="#304047"/>
<path d="M323.05 353.444L323.129 341.357C323.131 341.343 323.134 341.329 323.137 341.317L323.057 353.441C323.055 353.442 323.052 353.442 323.05 353.444" fill="#2B363B"/>
<path d="M314.558 398.71L314.383 372.054V372.053L314.558 398.71ZM314.066 323.636L313.916 300.74H313.918L314.068 323.636H314.066Z" fill="white"/>
<path d="M314.382 372.054L314.067 323.636H314.068L314.382 372.053V372.054" fill="#304047"/>
<path d="M322.377 456.295H314.934L314.558 398.71L314.383 372.053L314.068 323.636L313.918 300.74H323.394L323.272 319.348L323.129 341.357L323.049 353.444L323.047 353.807L323.044 354.178L322.671 411.275L322.67 411.589L322.487 439.564L322.377 456.295" fill="#304047"/>
<path d="M323.405 300.74H323.402L323.405 300.406L323.571 274.722H323.572L323.405 300.74V300.74ZM313.916 300.74H313.915L313.748 274.722L313.915 300.406L313.916 300.74Z" fill="#CECDCC"/>
<path d="M323.402 300.74H323.394L323.563 274.722H323.571L323.405 300.406L323.402 300.74V300.74ZM313.918 300.74H313.916L313.915 300.406L313.748 274.722H313.749L313.918 300.74Z" fill="#CECDCB"/>
<path d="M323.394 300.74H313.918L313.749 274.722H323.563L323.394 300.74Z" fill="#263136"/>
<path d="M401.42 456.295H393.976L380.599 270.059H390.477L401.42 456.295Z" fill="#1D2A30"/>
<path d="M391.882 427.176L390.762 411.589H390.764L391.885 427.176H391.882ZM399.664 426.411L398.793 411.589H398.794L399.667 426.411H399.664ZM398.776 411.275H398.775L398.721 410.352H398.722L398.776 411.275ZM390.742 411.275H390.739L390.672 410.352H390.676L390.742 411.275ZM398.52 406.952L397.871 395.899L398.52 406.937V406.952Z" fill="white"/>
<path d="M398.794 411.589H398.793L398.775 411.275H398.776L398.794 411.589ZM390.764 411.589H390.762L390.739 411.275H390.742L390.764 411.589Z" fill="#F0F0F0"/>
<path d="M398.722 410.352H398.721L398.52 406.952V406.937L398.722 410.352Z" fill="#F9F9F9"/>
<path d="M390.676 410.352H390.672L390.266 404.693H390.269L390.676 410.352Z" fill="#F9F9F9"/>
<path d="M390.269 404.693H390.266L386.873 357.504H386.879L390.269 404.693" fill="#F0F0F0"/>
<path d="M401.425 456.295H393.976L392.854 440.701H392.856L393.976 456.295H401.42L400.503 440.701H400.507L401.425 456.295" fill="#F9F9F9"/>
<path d="M400.507 440.701H400.503L399.664 426.411H399.667L400.507 440.701V440.701ZM392.855 440.701H392.854L391.882 427.176H391.885L392.855 440.701" fill="#44545A"/>
<path d="M386.369 350.403H386.363L386.331 349.953C386.332 349.953 386.336 349.953 386.338 349.953L386.369 350.403" fill="#537BC6"/>
<path d="M386.878 357.504H386.872L386.363 350.403H386.369L386.878 357.504Z" fill="#B0B5B5"/>
<path d="M381.707 285.649L381.251 279.309L380.916 274.722H380.932L380.96 275.088L381.718 285.648L381.707 285.649" fill="#CDDEF3"/>
<path d="M386.331 349.952L382.332 294.318H382.342L386.338 349.952C386.336 349.952 386.332 349.952 386.331 349.952V349.952ZM381.8 286.933L381.707 285.649L381.719 285.648L381.812 286.933H381.8Z" fill="#304047"/>
<path d="M382.33 294.318L381.8 286.933H381.811L382.341 294.318H382.33Z" fill="#181715"/>
<path d="M401.42 456.295H393.976L392.855 440.7L391.885 427.176L390.764 411.589L390.742 411.275L390.676 410.352L390.269 404.693L386.879 357.504L386.369 350.403L386.338 349.952L382.341 294.318L381.811 286.933L381.718 285.648L380.96 275.088L381.251 278.866H390.984L391.01 279.309L397.871 395.899L398.52 406.952L398.721 410.352L398.775 411.275L398.793 411.589L399.664 426.411L400.503 440.7L401.42 456.295" fill="#304047"/>
<path d="M391.01 278.866H390.994L390.754 274.798L391.01 278.866Z" fill="#9CACD3"/>
<path d="M390.994 278.866H390.984L390.737 274.722H390.75L390.754 274.797L390.994 278.866" fill="#182124"/>
<path d="M380.96 275.088L380.932 274.723H380.935L380.96 275.088Z" fill="#A0AFD3"/>
<path d="M390.984 278.866H381.251L380.96 275.088L380.935 274.722H390.737L390.984 278.866Z" fill="#263136"/>
<path d="M146.115 456.295H138.67L149.615 270.059H159.491L146.115 456.295Z" fill="#1D2A30"/>
<path d="M151.379 383.005L153.371 355.258H153.374L151.379 383.005V383.005ZM153.397 354.944H153.394L159.157 274.722H159.17L158.834 279.309L153.397 354.944Z" fill="white"/>
<path d="M153.374 355.258H153.371L153.394 354.945H153.396L153.374 355.258Z" fill="#F0F0F0"/>
<path d="M146.11 456.295H138.672L149.075 279.309L149.102 278.866H158.834L159.153 274.722H159.157L153.394 354.944L153.371 355.258L151.379 383.005L146.11 456.295" fill="#304047"/>
<path d="M149.097 278.866H149.075L149.335 274.722H149.339L149.097 278.866" fill="#CECDCC"/>
<path d="M149.102 278.866H149.097L149.339 274.722H149.349L149.102 278.866Z" fill="#182124"/>
<path d="M158.834 278.866H149.102L149.35 274.722H159.153L158.834 278.866Z" fill="#263136"/>
<path d="M395.59 274.722H144.5C143.002 274.722 141.785 273.506 141.785 272.007V265.394H398.305V272.007C398.305 273.506 397.089 274.722 395.59 274.722" fill="#4870C0"/>
<path d="M395.59 274.722H144.5C143.002 274.722 141.785 273.506 141.785 272.007V266.611V270.059H398.305V272.007C398.305 273.506 397.089 274.722 395.59 274.722" fill="#8DAEE0"/>
<path d="M141.785 270.059H398.305V266.611H141.785V270.059Z" fill="#678ACF"/>
<path d="M402.92 266.611H137.17C135.72 266.611 134.543 265.435 134.543 263.983C134.543 262.531 135.72 261.355 137.17 261.355H402.92C404.372 261.355 405.547 262.531 405.547 263.983C405.547 265.435 404.372 266.611 402.92 266.611Z" fill="#4870C0"/>
<path d="M402.92 266.611H137.17C135.72 266.611 134.543 265.435 134.543 263.983C134.543 262.531 135.72 261.355 137.17 261.355H402.92C404.372 261.355 405.547 262.531 405.547 263.983C405.547 265.435 404.372 266.611 402.92 266.611Z" fill="#8DAEE0"/>
<path d="M338.64 249.505V250.381L335.611 251.588H338.64V253.656H336.029L333.272 255.46H335.341L332.581 257.064H335.341V261.171L384.109 261.19V258.897L385.941 257.064H383.7V251.933H387.698V250.209H389.69V249.505H338.64Z" fill="#4870C0"/>
<path d="M384.109 261.19L361.889 261.181V258.896L363.721 257.064H383.7H385.941L384.109 258.896H361.889V259.743L384.109 258.896V261.19" fill="#EFF5FC"/>
<path d="M361.481 257.064V253.478L383.7 251.933V256.241L361.481 257.064Z" fill="#EFF5FC"/>
<path d="M387.698 251.933H361.481H365.478V250.209H367.47V249.505H338.64V250.381L335.611 251.588L338.64 250.381V249.505H389.69V250.209H387.698H365.478L387.698 250.985V251.933" fill="#EFF5FC"/>
<path d="M358.746 261.188L349.969 261.181C349.972 261.18 349.974 261.179 349.977 261.176L358.705 261.18C358.719 261.182 358.734 261.185 358.746 261.188" fill="#D6D5D3"/>
<path d="M349.969 261.181H349.968C349.971 261.18 349.972 261.178 349.975 261.176H349.977C349.975 261.178 349.972 261.18 349.969 261.181Z" fill="#DFDFDD"/>
<path d="M349.968 261.181L339.347 261.174V261.172L349.974 261.176C349.972 261.179 349.971 261.18 349.968 261.181Z" fill="#8EAADE"/>
<path d="M361.889 261.19L358.746 261.187C358.734 261.185 358.719 261.182 358.705 261.18L361.889 261.181V261.19Z" fill="#A0B5E3"/>
<path d="M339.347 261.174L335.341 261.171L339.347 261.172V261.174Z" fill="#1A252A"/>
<path d="M361.889 261.181L339.347 261.172L335.341 261.171V257.578L354.033 257.064H335.341H333.207H332.581L335.341 255.46L361.136 256.241V255.46H335.339H335.341H334.763H333.272L336.029 253.656H338.64V251.588H335.611L338.64 250.381V249.505H367.47V250.209H365.478V251.933H361.481L361.384 253.484L361.481 253.478V257.064H363.721L361.889 258.897V261.181V261.181ZM338.64 251.588V252.363L361.889 251.588H338.64ZM338.64 249.691V250.381L361.481 250.209L338.64 249.691" fill="#D6DCEA"/>
<path d="M361.481 253.478V251.933H383.7L361.481 253.478Z" fill="#D6DCEA"/>
<path d="M361.384 253.484L361.48 251.933V253.478L361.384 253.484Z" fill="#BEC3D0"/>
<path d="M387.698 250.985L365.478 250.209H387.698V250.985Z" fill="#D6DCEA"/>
<path d="M383.7 257.064H361.481L383.7 256.241V257.064Z" fill="#D6DCEA"/>
<path d="M361.889 259.743V258.897H384.109L361.889 259.743Z" fill="#D6DCEA"/>
<path d="M338.64 250.381V249.691L361.48 250.209L338.64 250.381" fill="#BEC3D0"/>
<path d="M338.64 252.363V251.588H361.889L338.64 252.363Z" fill="#BEC3D0"/>
<path d="M361.136 256.241L335.339 255.46H361.136V256.241Z" fill="#BEC3D0"/>
<path d="M335.339 257.578H335.341V257.064H335.339V257.578Z" fill="#8EAADE"/>
<path d="M335.341 257.578V257.064H354.033L335.341 257.578Z" fill="#BEC3D0"/>
</svg>
