<svg width="240" height="140" viewBox="0 0 240 140" fill="none" xmlns="http://www.w3.org/2000/svg">
<path d="M34.4671 121.68L31.7311 121.92L31.2511 119.136H28.7791V129.264H31.3231V132H23.1631V129.264H25.5631V119.136H23.0911L22.6111 121.92L19.8751 121.68L20.3551 116.4H33.9871L34.4671 121.68ZM45.0612 128.592C44.9812 129.552 44.5092 130.4 43.6452 131.136C42.7812 131.872 41.5732 132.24 40.0212 132.24C38.4052 132.24 37.0692 131.784 36.0132 130.872C34.9732 129.96 34.4532 128.6 34.4532 126.792C34.4532 125.128 34.9252 123.744 35.8692 122.64C36.8292 121.52 38.1652 120.96 39.8772 120.96C41.3812 120.96 42.5972 121.392 43.5252 122.256C44.4692 123.12 44.9492 124.256 44.9652 125.664C44.9652 126.192 44.9092 126.712 44.7972 127.224H37.6932C37.8692 128.936 38.7172 129.792 40.2372 129.792C41.0692 129.792 41.6292 129.592 41.9172 129.192C42.2212 128.792 42.4052 128.432 42.4692 128.112L45.0612 128.592ZM41.7732 125.424C41.8372 124.88 41.7172 124.368 41.4132 123.888C41.1252 123.408 40.6132 123.168 39.8772 123.168C39.2372 123.168 38.7412 123.376 38.3892 123.792C38.0372 124.208 37.8132 124.752 37.7172 125.424H41.7732ZM56.4708 127.968C56.3588 128.96 55.9268 129.92 55.1748 130.848C54.4388 131.776 53.1988 132.24 51.4548 132.24C49.8868 132.24 48.5908 131.784 47.5668 130.872C46.5588 129.96 46.0548 128.592 46.0548 126.768C46.0548 124.848 46.6068 123.4 47.7108 122.424C48.8148 121.448 50.1508 120.96 51.7188 120.96C52.3108 120.96 52.9428 121.04 53.6148 121.2C54.3028 121.344 54.9748 121.592 55.6308 121.944L56.1108 125.232L53.6388 125.496L53.2788 123.72C52.6548 123.512 52.1108 123.408 51.6468 123.408C50.9908 123.408 50.4308 123.664 49.9668 124.176C49.5028 124.672 49.2708 125.488 49.2708 126.624C49.2708 128.736 50.0948 129.792 51.7428 129.792C52.9588 129.792 53.6708 129.024 53.8788 127.488L56.4708 127.968ZM70.4797 132H64.5037V129.672H65.9437V125.904C65.9437 124.976 65.7757 124.312 65.4397 123.912C65.1197 123.512 64.6557 123.312 64.0477 123.312C63.3437 123.312 62.7917 123.528 62.3917 123.96C62.0077 124.392 61.7997 124.96 61.7677 125.664V129.672H63.2077V132H57.2317V129.672H58.6717V117.84H57.2317V115.488H61.7677V122.832C62.4877 121.584 63.6477 120.96 65.2477 120.96C66.2717 120.96 67.1597 121.264 67.9117 121.872C68.6637 122.48 69.0397 123.424 69.0397 124.704V129.672H70.4797V132ZM72.881 119.256V116.04H75.977V119.256H72.881ZM77.537 132H71.561V129.672H73.001V123.528H71.441V121.176H76.097V129.672H77.537V132ZM89.0768 128.592C88.9968 129.552 88.5248 130.4 87.6608 131.136C86.7968 131.872 85.5888 132.24 84.0368 132.24C82.4208 132.24 81.0848 131.784 80.0288 130.872C78.9888 129.96 78.4688 128.6 78.4688 126.792C78.4688 125.128 78.9408 123.744 79.8848 122.64C80.8448 121.52 82.1808 120.96 83.8928 120.96C85.3968 120.96 86.6128 121.392 87.5408 122.256C88.4848 123.12 88.9648 124.256 88.9808 125.664C88.9808 126.192 88.9248 126.712 88.8128 127.224H81.7088C81.8848 128.936 82.7328 129.792 84.2528 129.792C85.0848 129.792 85.6448 129.592 85.9328 129.192C86.2368 128.792 86.4208 128.432 86.4848 128.112L89.0768 128.592ZM85.7888 125.424C85.8528 124.88 85.7328 124.368 85.4288 123.888C85.1408 123.408 84.6288 123.168 83.8928 123.168C83.2528 123.168 82.7568 123.376 82.4048 123.792C82.0528 124.208 81.8288 124.752 81.7328 125.424H85.7888ZM106.667 127.272C106.667 128.888 106.123 130.12 105.035 130.968C103.947 131.816 102.451 132.24 100.547 132.24C99.491 132.24 98.435 132.104 97.379 131.832C96.339 131.56 95.515 131.152 94.907 130.608L95.387 126.744L97.955 126.984L97.931 128.88C98.475 129.168 98.939 129.344 99.323 129.408C99.707 129.456 100.035 129.48 100.307 129.48C101.155 129.48 101.851 129.376 102.395 129.168C102.939 128.944 103.211 128.44 103.211 127.656C103.211 126.792 102.891 126.216 102.251 125.928C101.611 125.624 100.859 125.392 99.995 125.232C99.243 125.104 98.483 124.92 97.715 124.68C96.963 124.424 96.331 124.016 95.819 123.456C95.307 122.88 95.051 122.032 95.051 120.912C95.051 119.168 95.643 117.944 96.827 117.24C98.011 116.52 99.307 116.16 100.715 116.16C101.739 116.16 102.715 116.32 103.643 116.64C104.571 116.944 105.283 117.36 105.779 117.888L105.923 121.272L103.355 121.512L103.139 119.688C102.739 119.416 102.331 119.232 101.915 119.136C101.515 119.04 101.123 118.992 100.739 118.992C100.099 118.992 99.563 119.104 99.131 119.328C98.715 119.552 98.507 119.944 98.507 120.504C98.507 121.16 98.779 121.616 99.323 121.872C99.867 122.128 100.491 122.336 101.195 122.496C101.835 122.624 102.579 122.808 103.427 123.048C104.291 123.272 105.043 123.704 105.683 124.344C106.339 124.968 106.667 125.944 106.667 127.272ZM117.146 128.64C116.986 129.888 116.554 130.8 115.85 131.376C115.146 131.952 114.234 132.24 113.114 132.24C111.914 132.24 110.938 131.944 110.186 131.352C109.45 130.744 109.082 129.88 109.082 128.76V123.384H107.546V121.176H109.082V117.888H112.178V121.176H116.066V123.384H112.178V128.232C112.178 129.176 112.61 129.648 113.474 129.648C113.666 129.648 113.922 129.568 114.242 129.408C114.578 129.232 114.794 128.744 114.89 127.944L117.146 128.64ZM118.597 121.944C119.541 121.56 120.325 121.304 120.949 121.176C121.589 121.032 122.349 120.96 123.229 120.96C124.397 120.96 125.405 121.264 126.253 121.872C127.101 122.48 127.525 123.4 127.525 124.632V129.336C127.525 129.896 127.773 130.176 128.269 130.176C128.413 130.176 128.565 130.152 128.725 130.104L128.749 131.736C128.125 132.072 127.477 132.24 126.805 132.24C125.381 132.24 124.589 131.528 124.429 130.104V130.08C124.125 130.624 123.685 131.12 123.109 131.568C122.549 132.016 121.829 132.24 120.949 132.24C120.165 132.24 119.413 132.008 118.693 131.544C117.973 131.08 117.613 130.28 117.613 129.144C117.613 127.816 118.141 126.936 119.197 126.504C120.269 126.072 121.421 125.856 122.653 125.856C123.341 125.856 123.933 125.888 124.429 125.952V125.592C124.429 125.032 124.349 124.488 124.189 123.96C124.045 123.432 123.533 123.168 122.653 123.168C122.333 123.168 122.037 123.192 121.765 123.24C121.509 123.272 121.253 123.352 120.997 123.48L120.589 125.016L118.117 124.752L118.597 121.944ZM124.429 127.584V127.44C124.173 127.408 123.909 127.376 123.637 127.344C123.381 127.312 123.125 127.296 122.869 127.296C122.325 127.296 121.845 127.4 121.429 127.608C121.013 127.8 120.805 128.192 120.805 128.784C120.805 129.136 120.901 129.432 121.093 129.672C121.285 129.912 121.613 130.032 122.077 130.032C122.621 130.032 123.125 129.84 123.589 129.456C124.069 129.056 124.349 128.432 124.429 127.584ZM136.641 121.032C136.945 121.032 137.281 121.08 137.649 121.176C138.033 121.256 138.409 121.408 138.777 121.632L139.257 125.424L136.905 125.688L136.497 123.84C136.177 123.648 135.897 123.552 135.657 123.552C135.305 123.552 134.993 123.688 134.721 123.96C134.465 124.232 134.337 124.632 134.337 125.16V129.672H136.257V132H129.801V129.672H131.241V123.528H129.681V121.176H134.097V123.24C134.273 122.616 134.553 122.096 134.937 121.68C135.337 121.248 135.905 121.032 136.641 121.032ZM149.443 128.64C149.283 129.888 148.851 130.8 148.147 131.376C147.443 131.952 146.531 132.24 145.411 132.24C144.211 132.24 143.235 131.944 142.483 131.352C141.747 130.744 141.379 129.88 141.379 128.76V123.384H139.843V121.176H141.379V117.888H144.475V121.176H148.363V123.384H144.475V128.232C144.475 129.176 144.907 129.648 145.771 129.648C145.963 129.648 146.219 129.568 146.539 129.408C146.875 129.232 147.091 128.744 147.187 127.944L149.443 128.64ZM160.374 128.592C160.294 129.552 159.822 130.4 158.958 131.136C158.094 131.872 156.886 132.24 155.334 132.24C153.718 132.24 152.382 131.784 151.326 130.872C150.286 129.96 149.766 128.6 149.766 126.792C149.766 125.128 150.238 123.744 151.182 122.64C152.142 121.52 153.478 120.96 155.19 120.96C156.694 120.96 157.91 121.392 158.838 122.256C159.782 123.12 160.262 124.256 160.278 125.664C160.278 126.192 160.222 126.712 160.11 127.224H153.006C153.182 128.936 154.03 129.792 155.55 129.792C156.382 129.792 156.942 129.592 157.23 129.192C157.534 128.792 157.718 128.432 157.782 128.112L160.374 128.592ZM157.086 125.424C157.15 124.88 157.03 124.368 156.726 123.888C156.438 123.408 155.926 123.168 155.19 123.168C154.55 123.168 154.054 123.376 153.702 123.792C153.35 124.208 153.126 124.752 153.03 125.424H157.086ZM168.399 121.032C168.703 121.032 169.039 121.08 169.407 121.176C169.791 121.256 170.167 121.408 170.535 121.632L171.015 125.424L168.663 125.688L168.255 123.84C167.935 123.648 167.655 123.552 167.415 123.552C167.063 123.552 166.751 123.688 166.479 123.96C166.223 124.232 166.095 124.632 166.095 125.16V129.672H168.015V132H161.559V129.672H162.999V123.528H161.439V121.176H165.855V123.24C166.031 122.616 166.311 122.096 166.695 121.68C167.095 121.248 167.663 121.032 168.399 121.032ZM192.887 132H186.311V129.264H187.991V125.448H181.391V129.264H183.071V132H176.495V129.264H178.175V119.136H176.495V116.4H183.071V119.136H181.391V122.736H187.991V119.136H186.311V116.4H192.887V119.136H191.207V129.264H192.887V132ZM207.075 132H202.419V130.344C201.699 131.592 200.539 132.216 198.939 132.216C197.915 132.216 197.027 131.912 196.275 131.304C195.523 130.696 195.147 129.752 195.147 128.472V123.504H193.707V121.176H198.243V127.272C198.243 128.216 198.395 128.888 198.699 129.288C199.019 129.672 199.483 129.864 200.091 129.864C200.827 129.864 201.395 129.624 201.795 129.144C202.211 128.664 202.419 128.048 202.419 127.296V123.504H200.667V121.176H205.515V129.672H207.075V132ZM220.13 126.336C220.13 127.936 219.706 129.32 218.858 130.488C218.026 131.656 216.794 132.24 215.162 132.24C213.514 132.24 212.354 131.616 211.682 130.368C211.65 130.64 211.61 130.912 211.562 131.184C211.53 131.456 211.49 131.728 211.442 132H208.346C208.458 131.44 208.554 130.88 208.634 130.32C208.714 129.76 208.754 129.208 208.754 128.664V117.84H207.314V115.488H211.85V123.24C212.138 122.616 212.57 122.08 213.146 121.632C213.738 121.184 214.522 120.96 215.498 120.96C216.858 120.96 217.97 121.432 218.834 122.376C219.698 123.32 220.13 124.64 220.13 126.336ZM216.914 126.6C216.914 125.56 216.69 124.768 216.242 124.224C215.794 123.68 215.202 123.408 214.466 123.408C213.634 123.408 212.986 123.712 212.522 124.32C212.074 124.928 211.85 125.632 211.85 126.432V126.696C211.85 127.576 212.066 128.32 212.498 128.928C212.946 129.52 213.578 129.816 214.394 129.816C215.098 129.816 215.69 129.56 216.17 129.048C216.666 128.52 216.914 127.704 216.914 126.6Z" fill="#1D3557"/>
<circle cx="124" cy="54" r="54" fill="#F7F4F4"/>
<path d="M153.003 19.5177L110.561 32.289C109.7 32.5482 109.054 33.2758 108.888 34.1734L104.995 55.2868C104.732 56.7152 105.75 58.0578 107.176 58.1617L108.014 58.2227C108.22 58.2996 108.434 58.3589 108.664 58.3757L147.801 61.2258C148.641 61.2868 149.392 60.6974 149.547 59.8559L156.591 21.9932C157.018 19.2659 153.945 19.1722 153.003 19.5177" fill="#F7F4F4"/>
<path d="M153.987 19.7508C153.634 19.7508 153.322 19.7995 153.128 19.8707L153.108 19.8775L110.665 32.6488C109.933 32.869 109.392 33.4798 109.25 34.2427L105.357 55.3561C105.252 55.9321 105.393 56.5286 105.744 56.9927C106.097 57.4559 106.628 57.7462 107.202 57.7877L108.141 57.8709C108.347 57.9476 108.522 57.9891 108.692 58.0017L147.828 60.8518C148.469 60.9034 149.064 60.4416 149.185 59.7867L156.228 21.9235C156.341 21.2022 156.178 20.6438 155.74 20.2752C155.277 19.8855 154.574 19.7508 153.987 19.7508V19.7508ZM147.921 61.6053C147.872 61.6053 147.824 61.6033 147.774 61.5996L108.638 58.7497C108.413 58.7332 108.19 58.6834 107.937 58.5934L107.149 58.5358C106.365 58.4791 105.641 58.0834 105.161 57.451C104.68 56.8175 104.488 56.0039 104.633 55.2179L108.526 34.1042C108.718 33.0633 109.457 32.2298 110.456 31.9292L152.889 19.1611C153.551 18.9241 155.189 18.8389 156.209 19.6972C156.659 20.0752 157.153 20.7905 156.955 22.0519L149.91 59.9254C149.729 60.9056 148.888 61.6053 147.921 61.6053Z" fill="#3E4445"/>
<path d="M147.802 65.7698L127.236 85.6184C126.27 86.526 124.912 86.841 123.673 86.4807C123.489 86.436 123.311 86.3682 123.134 86.2858L86.8714 73.7812C86.7092 73.6989 86.1635 72.6035 85.7795 71.7483C85.5509 71.2532 85.3814 70.8408 85.3738 70.7732C85.3369 70.3907 85.5215 69.993 85.9274 69.7981L103.683 58.4261C104.302 58.1336 104.988 58.0059 105.667 58.0512L107.135 58.1561C107.15 58.1638 107.164 58.1638 107.179 58.1638H107.245L146.636 61.0592C146.983 61.0817 147.226 61.3218 147.322 61.6067L147.529 62.2368L148.008 64.9297C148.104 65.2074 148.052 65.5373 147.802 65.7698" fill="#F7F4F4"/>
<path d="M87.0667 73.4522L123.253 85.9303C123.458 86.024 123.611 86.0802 123.759 86.116C124.898 86.4479 126.128 86.1482 126.986 85.3429L147.553 65.4932C147.735 65.3242 147.681 65.1143 147.66 65.0539L147.165 62.3041L146.972 61.7249C146.952 61.6631 146.861 61.4494 146.612 61.4335L107.219 58.5375C107.176 58.5395 107.125 58.5381 107.073 58.5273L105.641 58.4253C105.027 58.3851 104.397 58.5022 103.838 58.7665L86.1237 70.1155C85.8019 70.2733 85.7218 70.5362 85.7414 70.7371C85.7506 70.7573 85.8789 71.0809 86.1137 71.5888C86.5263 72.5087 86.9213 73.2584 87.0667 73.4522V73.4522ZM124.689 87C124.315 87 123.939 86.9479 123.571 86.8416C123.392 86.798 123.193 86.7262 122.981 86.6263L86.7535 74.1364C86.6115 74.068 86.3579 73.939 85.4439 71.9039C85.1679 71.3062 85.0203 70.9382 85.0074 70.814C84.9517 70.2382 85.2517 69.7081 85.7694 69.4591L103.486 58.1091C104.199 57.7684 104.948 57.6285 105.691 57.6769L107.272 57.7897L146.663 60.6851C147.128 60.7153 147.515 61.0219 147.671 61.4853L147.879 62.1186L148.371 64.8628C148.51 65.2516 148.394 65.7256 148.053 66.0444L127.489 85.8904C126.722 86.612 125.711 87 124.689 87" fill="#3E4445"/>
<path d="M153.003 19.5177L110.561 32.289C109.7 32.5482 109.054 33.2758 108.888 34.1734L104.995 55.2868C104.732 56.7152 105.75 58.0581 107.175 58.1617L146.312 61.0119C147.152 61.0728 147.903 60.4837 148.058 59.6419L155.102 21.4437C155.33 20.206 154.191 19.1605 153.003 19.5177Z" fill="#F7F4F4"/>
<path d="M153.108 19.8775L110.665 32.6488C109.933 32.869 109.392 33.4798 109.25 34.2426L105.357 55.3561C105.252 55.9321 105.392 56.5277 105.744 56.9918C106.096 57.4558 106.628 57.7461 107.202 57.7877L146.338 60.6378C146.983 60.6897 147.576 60.2276 147.696 59.5727L154.739 21.3745C154.823 20.923 154.672 20.4689 154.337 20.161C154 19.853 153.541 19.7479 153.108 19.8775ZM146.432 61.3913C146.383 61.3913 146.335 61.3893 146.285 61.3856L107.149 58.5358C106.365 58.4791 105.64 58.0831 105.16 57.4502C104.68 56.8169 104.487 56.0033 104.633 55.2176L108.526 34.1042C108.718 33.0633 109.457 32.2298 110.456 31.9292L152.899 19.1582C153.578 18.9542 154.302 19.1195 154.831 19.6043C155.359 20.0886 155.595 20.8025 155.464 21.5129L148.421 59.7112C148.24 60.6917 147.399 61.3913 146.432 61.3913" fill="#3E4445"/>
<path d="M107.168 53.9363L110.565 35.5149C110.686 34.8642 111.154 34.3367 111.778 34.1489L150.478 22.5037C151.373 22.2342 152.232 23.0228 152.06 23.9563L145.955 56.7932C145.838 57.4279 145.271 57.8723 144.637 57.8262L108.749 56.0204C107.716 55.9452 106.978 54.9718 107.168 53.9363" fill="#3E4445"/>
<path d="M85.9245 69.8001L103.681 58.4247C104.302 58.1304 104.987 58.0025 105.67 58.0521L146.222 61.0053C146.9 61.0549 147.199 61.897 146.71 62.3753L126.515 82.1136C125.426 83.1788 123.813 83.4736 122.427 82.8617L85.9475 71.5843C85.1864 71.2484 85.1724 70.1562 85.9245 69.8001" fill="#F7F4F4"/>
<path d="M105.383 58.417C104.851 58.417 104.321 58.5358 103.836 58.7645L86.08 70.14C85.8621 70.2431 85.7341 70.4505 85.7369 70.6946C85.7405 70.9388 85.8739 71.143 86.0943 71.2401L122.535 82.5028C123.829 83.0716 125.274 82.8064 126.26 81.8436L146.454 62.1052C146.635 61.9286 146.579 61.7172 146.557 61.6568C146.536 61.5962 146.446 61.3979 146.196 61.3797L105.644 58.4261C105.557 58.4199 105.471 58.417 105.383 58.417V58.417ZM123.922 83.5536C123.369 83.5536 122.811 83.4397 122.28 83.2055L85.84 71.9432C85.3133 71.7133 85.0066 71.2444 85.0001 70.7046C84.9929 70.1733 85.278 69.703 85.7456 69.4711L103.484 58.1076C104.202 57.7641 104.954 57.6236 105.697 57.6783L146.249 60.6316C146.709 60.6649 147.093 60.9598 147.25 61.401C147.408 61.8429 147.299 62.3197 146.966 62.6456L126.771 82.3843C125.987 83.1503 124.963 83.5536 123.922 83.5536" fill="#3E4445"/>
<path d="M99.5102 73.4394L101.301 72.1871C101.415 72.1073 101.556 72.0794 101.691 72.1093L109.782 73.9097C110.178 73.9977 110.312 74.5028 110.013 74.7811L108.112 76.5524C107.984 76.6718 107.804 76.7151 107.637 76.6664L99.6562 74.3469C99.2497 74.2287 99.162 73.6829 99.5102 73.4394Z" fill="#3E4445"/>
<path d="M91.8194 68.3239L103.958 60.3202C104.319 60.1496 104.716 60.0752 105.113 60.104L141.106 62.7251C141.351 62.743 141.459 63.0467 141.282 63.2193L128.364 75.7516C127.518 76.5786 126.275 76.8256 125.185 76.3832L91.8242 68.5897C91.7099 68.5404 91.7073 68.3772 91.8194 68.3239Z" fill="#F7F4F4"/>
<path d="M92.4486 68.3561L125.268 76.0174C126.274 76.4208 127.369 76.2037 128.109 75.4813L140.886 63.0852L105.086 60.478C104.759 60.4547 104.418 60.5168 104.114 60.6601L92.4486 68.3561ZM126.29 76.974C125.872 76.974 125.45 76.8948 125.048 76.7313L91.7412 68.9549C91.4942 68.8546 91.3715 68.67 91.3681 68.4646C91.3653 68.2709 91.4681 68.0918 91.6339 67.9995L103.757 60.0054C104.22 59.7827 104.678 59.6935 105.139 59.7302L141.133 62.3511C141.393 62.3701 141.61 62.5374 141.699 62.7872C141.788 63.0364 141.726 63.3057 141.538 63.4897L128.619 76.0231C127.984 76.6444 127.143 76.974 126.29 76.974" fill="#3E4445"/>
<path d="M122.272 75.9234L121.778 75.3667L136.232 62.1097L136.727 62.6667L122.272 75.9234" fill="#3E4445"/>
<path d="M117.069 74.7409L116.59 74.1706L130.959 61.7184L131.438 62.289L117.069 74.7409" fill="#3E4445"/>
<path d="M111.972 73.4955L111.509 72.9109L125.686 61.311L126.148 61.8955L111.972 73.4955Z" fill="#3E4445"/>
<path d="M106.866 72.2899L106.419 71.6922L120.358 60.9315L120.805 61.5292L106.866 72.2899" fill="#3E4445"/>
<path d="M101.715 71.1464L101.286 70.5362L115.026 60.5364L115.455 61.1466L101.715 71.1464" fill="#3E4445"/>
<path d="M96.5237 70.0545L96.1116 69.4327L109.67 60.1402L110.082 60.7621L96.5237 70.0545Z" fill="#3E4445"/>
<path d="M130.749 73.7404L94.6415 66.7867L94.7785 66.0498L130.886 73.0035L130.749 73.7404Z" fill="#3E4445"/>
<path d="M134.417 70.1989L97.86 64.6767L97.9681 63.9346L134.524 69.4569L134.417 70.1989Z" fill="#3E4445"/>
<path d="M138.111 66.6295L101.092 62.5567L101.172 61.8109L138.19 65.884L138.111 66.6295" fill="#3E4445"/>
<path d="M133.651 77.9859L130.98 80.6084V79.9121L133.651 77.2896V77.9859Z" fill="#3E4445"/>
<path d="M136.83 74.8477L134.158 77.4702V76.7743L136.83 74.1515V74.8477Z" fill="#3E4445"/>
<path d="M140.008 71.7096L137.336 74.3324V73.6365L140.008 71.0134V71.7096Z" fill="#3E4445"/>
<path d="M146.666 64.834C146.642 64.9098 146.619 64.9861 146.584 65.057C146.571 65.0844 146.545 65.1026 146.529 65.1285C146.531 65.0286 146.518 64.93 146.474 64.8471C146.422 64.7528 146.349 64.6961 146.267 64.6702C146.326 64.6386 146.389 64.6126 146.456 64.6121C146.506 64.6115 146.556 64.6295 146.597 64.6602C146.472 64.4611 146.234 64.4232 146.046 64.6078C146.017 64.6377 145.965 64.7198 145.957 64.7198C145.825 64.9223 145.795 65.1998 145.899 65.3872C146.009 65.5897 146.223 65.6425 146.407 65.5225L146.415 65.5148C146.437 65.4997 146.459 65.4772 146.481 65.4547C146.643 65.3029 146.71 65.0494 146.666 64.834" fill="#3E4445"/>
<path d="M129.544 27.6892C129.544 27.853 129.414 27.986 129.252 27.986C129.091 27.986 128.96 27.853 128.96 27.6892C128.96 27.5251 129.091 27.3924 129.252 27.3924C129.414 27.3924 129.544 27.5251 129.544 27.6892Z" fill="#231F20"/>
<path d="M113.962 59.2648L109.977 58.9765C109.647 58.9525 109.398 58.6611 109.421 58.3253C109.445 57.9897 109.731 57.7367 110.062 57.7606L114.047 58.0489C114.377 58.0729 114.626 58.3646 114.603 58.7001C114.579 59.036 114.293 59.2887 113.962 59.2648Z" fill="#F7F4F4"/>
<path d="M113.988 58.891C114.125 58.897 114.226 58.8024 114.235 58.6731C114.244 58.5449 114.148 58.4321 114.021 58.423L110.036 58.1347C109.888 58.1273 109.799 58.2239 109.789 58.3526C109.78 58.4808 109.876 58.5933 110.002 58.6025L113.988 58.891ZM114.005 59.6417C113.982 59.6417 113.959 59.6408 113.936 59.6388L109.951 59.3502C109.418 59.3124 109.017 58.8406 109.053 58.2996C109.091 57.757 109.551 57.3382 110.087 57.3869L114.073 57.6749C114.606 57.7131 115.007 58.1848 114.971 58.7261C114.934 59.2448 114.508 59.6417 114.005 59.6417" fill="#3E4445"/>
<path d="M138.854 61.066L134.869 60.7777C134.539 60.7538 134.29 60.4621 134.313 60.1265C134.337 59.7906 134.624 59.538 134.954 59.5619L138.939 59.8502C139.27 59.8741 139.518 60.1655 139.495 60.5014C139.471 60.837 139.184 61.0899 138.854 61.066Z" fill="#F7F4F4"/>
<path d="M138.88 60.692C139.032 60.6982 139.118 60.6034 139.127 60.4743C139.136 60.3461 139.04 60.2333 138.914 60.2242L134.928 59.9356C134.794 59.9285 134.69 60.0245 134.682 60.1536C134.672 60.2818 134.768 60.3946 134.895 60.4037L138.88 60.692ZM138.898 61.4423C138.875 61.4423 138.852 61.4418 138.829 61.44L134.843 61.1518C134.311 61.1136 133.908 60.6418 133.945 60.1003C133.984 59.5582 134.446 59.14 134.98 59.1876L138.966 59.4761C139.498 59.5143 139.9 59.9864 139.863 60.5276C139.826 61.0458 139.4 61.4423 138.898 61.4423" fill="#3E4445"/>
<path d="M123.673 86.4807C123.489 86.4359 123.312 86.3681 123.134 86.2858L86.8715 73.7811C86.7093 73.6988 86.3877 73.2621 86.0039 72.4069C86.1148 72.3018 86.0039 72.4069 86.0039 72.4069L122.262 84.053C122.969 84.28 123.481 84.905 123.572 85.6531L123.673 86.4807Z" fill="#3E4445"/>
<path d="M150.598 77.4168C151.617 75.4466 150.522 72.5247 147.812 69.1359C149.678 71.7587 150.377 73.9741 149.6 75.478C147.193 80.1342 131.377 76.4958 114.274 67.3515C97.1717 58.2074 85.2588 47.02 87.6662 42.3638C89.0176 39.7504 96.1756 40.3176 104.393 42.529C94.6401 39.4875 87.2564 39.2878 85.5299 42.627C82.8081 47.8912 95.1674 59.9469 113.136 69.5538C131.104 79.1608 147.876 82.6812 150.598 77.4168" fill="#F1FAEE"/>
<path d="M150.598 78.3717C151.617 76.4012 150.522 73.4793 147.812 70.0905C149.678 72.7136 150.377 74.929 149.6 76.4328C147.193 81.0888 131.377 77.4504 114.274 68.3063C97.1717 59.162 85.2588 47.9746 87.6662 43.3187C89.0176 40.7053 96.1756 41.2722 104.393 43.4839C94.6401 40.4424 87.2564 40.2427 85.5299 43.5819C82.8081 48.846 95.1674 60.9014 113.136 70.5084C131.104 80.1154 147.876 83.6361 150.598 78.3717" fill="#1D3557"/>
<path d="M84.3693 47.7966C85.1823 49.0446 85.9647 50.2664 86.7981 51.4452C87.627 52.6257 88.4954 53.7652 89.4106 54.8651C90.3258 55.9647 91.2858 57.0255 92.2923 58.0533C93.2966 59.0851 94.3505 60.0733 95.4242 61.098C94.0586 60.5334 92.7938 59.7415 91.622 58.8285C90.4524 57.9115 89.3792 56.8626 88.4248 55.7123C87.4701 54.5622 86.632 53.3117 85.9375 51.9862C85.2478 50.6592 84.6906 49.2597 84.3693 47.7966Z" fill="#1D3557"/>
<path d="M151.533 78.4842C151.561 79.2357 151.252 80.0137 150.758 80.6233C150.267 81.2434 149.585 81.7103 148.87 82.0169C147.409 82.6253 145.902 82.7256 144.427 82.7578C142.944 82.7644 141.474 82.5971 140.04 82.3089C138.605 82.0191 137.203 81.622 135.83 81.0945C137.299 81.0839 138.741 81.2001 140.171 81.285C141.6 81.3788 143.015 81.4494 144.421 81.4454C145.821 81.4198 147.249 81.3978 148.532 81.0472C149.795 80.7028 151.024 79.9034 151.533 78.4842Z" fill="#1D3557"/>
</svg>
