<svg width="180" height="104" viewBox="0 0 180 104" fill="none" xmlns="http://www.w3.org/2000/svg">
<path d="M32.9781 90.9867L31.1541 91.1467L30.8341 89.2907H29.1861V96.0427H30.8821V97.8667H25.4421V96.0427H27.0421V89.2907H25.3941L25.0741 91.1467L23.2501 90.9867L23.5701 87.4667H32.6581L32.9781 90.9867ZM40.0408 95.5947C39.9875 96.2347 39.6728 96.8 39.0968 97.2907C38.5208 97.7814 37.7155 98.0267 36.6808 98.0267C35.6035 98.0267 34.7128 97.7227 34.0088 97.1147C33.3155 96.5067 32.9688 95.6 32.9688 94.3947C32.9688 93.2854 33.2835 92.3627 33.9128 91.6267C34.5528 90.88 35.4435 90.5067 36.5848 90.5067C37.5875 90.5067 38.3981 90.7947 39.0168 91.3707C39.6461 91.9467 39.9661 92.704 39.9768 93.6427C39.9768 93.9947 39.9395 94.3414 39.8648 94.6827H35.1288C35.2461 95.824 35.8115 96.3947 36.8248 96.3947C37.3795 96.3947 37.7528 96.2614 37.9448 95.9947C38.1475 95.728 38.2701 95.488 38.3128 95.2747L40.0408 95.5947ZM37.8488 93.4827C37.8915 93.12 37.8115 92.7787 37.6088 92.4587C37.4168 92.1387 37.0755 91.9787 36.5848 91.9787C36.1581 91.9787 35.8275 92.1174 35.5928 92.3947C35.3581 92.672 35.2088 93.0347 35.1448 93.4827H37.8488ZM47.6472 95.1787C47.5725 95.84 47.2845 96.48 46.7832 97.0987C46.2925 97.7174 45.4659 98.0267 44.3032 98.0267C43.2579 98.0267 42.3939 97.7227 41.7112 97.1147C41.0392 96.5067 40.7032 95.5947 40.7032 94.3787C40.7032 93.0987 41.0712 92.1334 41.8072 91.4827C42.5432 90.832 43.4339 90.5067 44.4792 90.5067C44.8739 90.5067 45.2952 90.56 45.7432 90.6667C46.2019 90.7627 46.6499 90.928 47.0872 91.1627L47.4072 93.3547L45.7592 93.5307L45.5192 92.3467C45.1032 92.208 44.7405 92.1387 44.4312 92.1387C43.9939 92.1387 43.6205 92.3094 43.3112 92.6507C43.0019 92.9814 42.8472 93.5254 42.8472 94.2827C42.8472 95.6907 43.3965 96.3947 44.4952 96.3947C45.3059 96.3947 45.7805 95.8827 45.9192 94.8587L47.6472 95.1787ZM56.9864 97.8667H53.0024V96.3147H53.9624V93.8027C53.9624 93.184 53.8504 92.7414 53.6264 92.4747C53.4131 92.208 53.1038 92.0747 52.6984 92.0747C52.2291 92.0747 51.8611 92.2187 51.5944 92.5067C51.3384 92.7947 51.1998 93.1734 51.1784 93.6427V96.3147H52.1384V97.8667H48.1544V96.3147H49.1144V88.4267H48.1544V86.8587H51.1784V91.7547C51.6584 90.9227 52.4318 90.5067 53.4984 90.5067C54.1811 90.5067 54.7731 90.7094 55.2744 91.1147C55.7758 91.52 56.0264 92.1494 56.0264 93.0027V96.3147H56.9864V97.8667ZM58.5873 89.3707V87.2267H60.6513V89.3707H58.5873ZM61.6913 97.8667H57.7073V96.3147H58.6673V92.2187H57.6273V90.6507H60.7313V96.3147H61.6913V97.8667ZM69.3846 95.5947C69.3312 96.2347 69.0166 96.8 68.4406 97.2907C67.8646 97.7814 67.0592 98.0267 66.0246 98.0267C64.9472 98.0267 64.0566 97.7227 63.3526 97.1147C62.6592 96.5067 62.3126 95.6 62.3126 94.3947C62.3126 93.2854 62.6272 92.3627 63.2566 91.6267C63.8966 90.88 64.7872 90.5067 65.9286 90.5067C66.9312 90.5067 67.7419 90.7947 68.3606 91.3707C68.9899 91.9467 69.3099 92.704 69.3206 93.6427C69.3206 93.9947 69.2832 94.3414 69.2086 94.6827H64.4726C64.5899 95.824 65.1552 96.3947 66.1686 96.3947C66.7232 96.3947 67.0966 96.2614 67.2886 95.9947C67.4912 95.728 67.6139 95.488 67.6566 95.2747L69.3846 95.5947ZM67.1926 93.4827C67.2352 93.12 67.1552 92.7787 66.9526 92.4587C66.7606 92.1387 66.4192 91.9787 65.9286 91.9787C65.5019 91.9787 65.1712 92.1174 64.9366 92.3947C64.7019 92.672 64.5526 93.0347 64.4886 93.4827H67.1926ZM81.1113 94.7147C81.1113 95.792 80.7486 96.6134 80.0233 97.1787C79.298 97.744 78.3006 98.0267 77.0313 98.0267C76.3273 98.0267 75.6233 97.936 74.9193 97.7547C74.226 97.5734 73.6766 97.3014 73.2713 96.9387L73.5913 94.3627L75.3033 94.5227L75.2873 95.7867C75.65 95.9787 75.9593 96.096 76.2153 96.1387C76.4713 96.1707 76.69 96.1867 76.8713 96.1867C77.4366 96.1867 77.9006 96.1174 78.2633 95.9787C78.626 95.8294 78.8073 95.4934 78.8073 94.9707C78.8073 94.3947 78.594 94.0107 78.1673 93.8187C77.7406 93.616 77.2393 93.4614 76.6633 93.3547C76.162 93.2694 75.6553 93.1467 75.1433 92.9867C74.642 92.816 74.2206 92.544 73.8793 92.1707C73.538 91.7867 73.3673 91.2214 73.3673 90.4747C73.3673 89.312 73.762 88.496 74.5513 88.0267C75.3406 87.5467 76.2046 87.3067 77.1433 87.3067C77.826 87.3067 78.4766 87.4134 79.0953 87.6267C79.714 87.8294 80.1886 88.1067 80.5193 88.4587L80.6153 90.7147L78.9033 90.8747L78.7593 89.6587C78.4926 89.4774 78.2206 89.3547 77.9433 89.2907C77.6766 89.2267 77.4153 89.1947 77.1593 89.1947C76.7326 89.1947 76.3753 89.2694 76.0873 89.4187C75.81 89.568 75.6713 89.8294 75.6713 90.2027C75.6713 90.64 75.8526 90.944 76.2153 91.1147C76.578 91.2854 76.994 91.424 77.4633 91.5307C77.89 91.616 78.386 91.7387 78.9513 91.8987C79.5273 92.048 80.0286 92.336 80.4553 92.7627C80.8926 93.1787 81.1113 93.8294 81.1113 94.7147ZM88.0976 95.6267C87.9909 96.4587 87.7029 97.0667 87.2336 97.4507C86.7642 97.8347 86.1562 98.0267 85.4096 98.0267C84.6096 98.0267 83.9589 97.8294 83.4576 97.4347C82.9669 97.0294 82.7216 96.4534 82.7216 95.7067V92.1227H81.6976V90.6507H82.7216V88.4587H84.7856V90.6507H87.3776V92.1227H84.7856V95.3547C84.7856 95.984 85.0736 96.2987 85.6496 96.2987C85.7776 96.2987 85.9482 96.2454 86.1616 96.1387C86.3856 96.0214 86.5296 95.696 86.5936 95.1627L88.0976 95.6267ZM89.0646 91.1627C89.6939 90.9067 90.2166 90.736 90.6326 90.6507C91.0592 90.5547 91.5659 90.5067 92.1526 90.5067C92.9312 90.5067 93.6032 90.7094 94.1686 91.1147C94.7339 91.52 95.0166 92.1334 95.0166 92.9547V96.0907C95.0166 96.464 95.1819 96.6507 95.5126 96.6507C95.6086 96.6507 95.7099 96.6347 95.8166 96.6027L95.8326 97.6907C95.4166 97.9147 94.9846 98.0267 94.5366 98.0267C93.5872 98.0267 93.0592 97.552 92.9526 96.6027V96.5867C92.7499 96.9494 92.4566 97.28 92.0726 97.5787C91.6992 97.8774 91.2192 98.0267 90.6326 98.0267C90.1099 98.0267 89.6086 97.872 89.1286 97.5627C88.6486 97.2534 88.4086 96.72 88.4086 95.9627C88.4086 95.0774 88.7606 94.4907 89.4646 94.2027C90.1792 93.9147 90.9472 93.7707 91.7686 93.7707C92.2272 93.7707 92.6219 93.792 92.9526 93.8347V93.5947C92.9526 93.2214 92.8992 92.8587 92.7926 92.5067C92.6966 92.1547 92.3552 91.9787 91.7686 91.9787C91.5552 91.9787 91.3579 91.9947 91.1766 92.0267C91.0059 92.048 90.8352 92.1014 90.6646 92.1867L90.3926 93.2107L88.7446 93.0347L89.0646 91.1627ZM92.9526 94.9227V94.8267C92.7819 94.8054 92.6059 94.784 92.4246 94.7627C92.2539 94.7414 92.0832 94.7307 91.9126 94.7307C91.5499 94.7307 91.2299 94.8 90.9526 94.9387C90.6752 95.0667 90.5366 95.328 90.5366 95.7227C90.5366 95.9574 90.6006 96.1547 90.7286 96.3147C90.8566 96.4747 91.0752 96.5547 91.3846 96.5547C91.7472 96.5547 92.0832 96.4267 92.3926 96.1707C92.7126 95.904 92.8992 95.488 92.9526 94.9227ZM101.094 90.5547C101.297 90.5547 101.521 90.5867 101.766 90.6507C102.022 90.704 102.273 90.8054 102.518 90.9547L102.838 93.4827L101.27 93.6587L100.998 92.4267C100.785 92.2987 100.598 92.2347 100.438 92.2347C100.204 92.2347 99.9956 92.3254 99.8143 92.5067C99.6436 92.688 99.5583 92.9547 99.5583 93.3067V96.3147H100.838V97.8667H96.5343V96.3147H97.4943V92.2187H96.4543V90.6507H99.3983V92.0267C99.5156 91.6107 99.7023 91.264 99.9583 90.9867C100.225 90.6987 100.604 90.5547 101.094 90.5547ZM109.629 95.6267C109.522 96.4587 109.234 97.0667 108.765 97.4507C108.295 97.8347 107.687 98.0267 106.941 98.0267C106.141 98.0267 105.49 97.8294 104.989 97.4347C104.498 97.0294 104.253 96.4534 104.253 95.7067V92.1227H103.229V90.6507H104.253V88.4587H106.317V90.6507H108.909V92.1227H106.317V95.3547C106.317 95.984 106.605 96.2987 107.181 96.2987C107.309 96.2987 107.479 96.2454 107.693 96.1387C107.917 96.0214 108.061 95.696 108.125 95.1627L109.629 95.6267ZM116.916 95.5947C116.862 96.2347 116.548 96.8 115.972 97.2907C115.396 97.7814 114.59 98.0267 113.556 98.0267C112.478 98.0267 111.588 97.7227 110.884 97.1147C110.19 96.5067 109.844 95.6 109.844 94.3947C109.844 93.2854 110.158 92.3627 110.788 91.6267C111.428 90.88 112.318 90.5067 113.46 90.5067C114.462 90.5067 115.273 90.7947 115.892 91.3707C116.521 91.9467 116.841 92.704 116.852 93.6427C116.852 93.9947 116.814 94.3414 116.74 94.6827H112.004C112.121 95.824 112.686 96.3947 113.7 96.3947C114.254 96.3947 114.628 96.2614 114.82 95.9947C115.022 95.728 115.145 95.488 115.188 95.2747L116.916 95.5947ZM114.724 93.4827C114.766 93.12 114.686 92.7787 114.484 92.4587C114.292 92.1387 113.95 91.9787 113.46 91.9787C113.033 91.9787 112.702 92.1174 112.468 92.3947C112.233 92.672 112.084 93.0347 112.02 93.4827H114.724ZM122.266 90.5547C122.469 90.5547 122.693 90.5867 122.938 90.6507C123.194 90.704 123.445 90.8054 123.69 90.9547L124.01 93.4827L122.442 93.6587L122.17 92.4267C121.957 92.2987 121.77 92.2347 121.61 92.2347C121.376 92.2347 121.168 92.3254 120.986 92.5067C120.816 92.688 120.73 92.9547 120.73 93.3067V96.3147H122.01V97.8667H117.706V96.3147H118.666V92.2187H117.626V90.6507H120.57V92.0267C120.688 91.6107 120.874 91.264 121.13 90.9867C121.397 90.6987 121.776 90.5547 122.266 90.5547ZM138.591 97.8667H134.207V96.0427H135.327V93.4987H130.927V96.0427H132.047V97.8667H127.663V96.0427H128.783V89.2907H127.663V87.4667H132.047V89.2907H130.927V91.6907H135.327V89.2907H134.207V87.4667H138.591V89.2907H137.471V96.0427H138.591V97.8667ZM148.05 97.8667H144.946V96.7627C144.466 97.5947 143.693 98.0107 142.626 98.0107C141.943 98.0107 141.351 97.808 140.85 97.4027C140.349 96.9974 140.098 96.368 140.098 95.5147V92.2027H139.138V90.6507H142.162V94.7147C142.162 95.344 142.263 95.792 142.466 96.0587C142.679 96.3147 142.989 96.4427 143.394 96.4427C143.885 96.4427 144.263 96.2827 144.53 95.9627C144.807 95.6427 144.946 95.232 144.946 94.7307V92.2027H143.778V90.6507H147.01V96.3147H148.05V97.8667ZM156.753 94.0907C156.753 95.1574 156.471 96.08 155.905 96.8587C155.351 97.6374 154.529 98.0267 153.441 98.0267C152.343 98.0267 151.569 97.6107 151.121 96.7787C151.1 96.96 151.073 97.1414 151.041 97.3227C151.02 97.504 150.993 97.6854 150.961 97.8667H148.897C148.972 97.4934 149.036 97.12 149.089 96.7467C149.143 96.3734 149.169 96.0054 149.169 95.6427V88.4267H148.209V86.8587H151.233V92.0267C151.425 91.6107 151.713 91.2534 152.097 90.9547C152.492 90.656 153.015 90.5067 153.665 90.5067C154.572 90.5067 155.313 90.8214 155.889 91.4507C156.465 92.08 156.753 92.96 156.753 94.0907ZM154.609 94.2667C154.609 93.5734 154.46 93.0454 154.161 92.6827C153.863 92.32 153.468 92.1387 152.977 92.1387C152.423 92.1387 151.991 92.3414 151.681 92.7467C151.383 93.152 151.233 93.6214 151.233 94.1547V94.3307C151.233 94.9174 151.377 95.4134 151.665 95.8187C151.964 96.2134 152.385 96.4107 152.929 96.4107C153.399 96.4107 153.793 96.24 154.113 95.8987C154.444 95.5467 154.609 95.0027 154.609 94.2667Z" fill="#F7F4F4"/>
<ellipse cx="89.5028" cy="40" rx="39.779" ry="40" fill="#F7F4F4"/>
<path d="M110.868 14.4576L79.6026 23.9178C78.9685 24.1099 78.4926 24.6488 78.3708 25.3137L75.5029 40.9533C75.3089 42.0113 76.0592 43.0058 77.1092 43.0828L77.7266 43.128C77.8781 43.185 78.0361 43.2289 78.2058 43.2413L107.035 45.3525C107.654 45.3977 108.208 44.9611 108.322 44.3377L113.511 16.2913C113.826 14.2711 111.562 14.2016 110.868 14.4576Z" fill="#F7F4F4"/>
<path d="M111.592 14.63C111.333 14.63 111.103 14.666 110.96 14.7188L110.945 14.7239L79.6796 24.1841C79.1406 24.3472 78.7415 24.7996 78.6375 25.3647L75.7697 41.0043C75.6917 41.4309 75.7957 41.8728 76.0547 42.2166C76.3143 42.5597 76.7054 42.7747 77.1288 42.8055L77.8203 42.8671C77.972 42.9239 78.101 42.9547 78.2258 42.964L107.055 45.0752C107.528 45.1134 107.966 44.7713 108.055 44.2862L113.244 16.2394C113.327 15.7051 113.207 15.2915 112.884 15.0184C112.543 14.7298 112.025 14.63 111.592 14.63ZM107.124 45.6333C107.088 45.6333 107.052 45.6318 107.016 45.6291L78.1864 43.5181C78.0207 43.5058 77.856 43.4689 77.6701 43.4022L77.0896 43.3596C76.5122 43.3176 75.9784 43.0245 75.6251 42.5561C75.271 42.0868 75.1294 41.4841 75.2359 40.9019L78.1037 25.2621C78.2452 24.4911 78.7898 23.8737 79.5257 23.651L110.784 14.1932C111.272 14.0176 112.478 13.9545 113.23 14.5903C113.561 14.8703 113.925 15.4002 113.779 16.3345L108.589 44.3889C108.456 45.115 107.836 45.6333 107.124 45.6333Z" fill="#3E4445"/>
<path d="M107.036 48.7183L91.8865 63.421C91.1747 64.0933 90.1749 64.3267 89.2618 64.0597C89.126 64.0266 88.9956 63.9764 88.8652 63.9154L62.1521 54.6527C62.0326 54.5917 61.6306 53.7803 61.3477 53.1469C61.1793 52.7801 61.0545 52.4746 61.0489 52.4246C61.0216 52.1412 61.1576 51.8466 61.4566 51.7023L74.5361 43.2786C74.9924 43.0618 75.4978 42.9673 75.9978 43.0009L77.0791 43.0785C77.0901 43.0842 77.1008 43.0842 77.1117 43.0842H77.1604L106.178 45.229C106.433 45.2456 106.612 45.4235 106.683 45.6345L106.835 46.1013L107.188 48.096C107.259 48.3018 107.221 48.5461 107.036 48.7183Z" fill="#F7F4F4"/>
<path d="M62.2961 54.4089L88.9526 63.652C89.1036 63.7214 89.2167 63.763 89.3257 63.7896C90.1641 64.0354 91.0705 63.8134 91.7023 63.2169L106.853 48.5133C106.987 48.3882 106.948 48.2327 106.932 48.188L106.568 46.151L106.425 45.722C106.41 45.6763 106.343 45.518 106.16 45.5062L77.1414 43.361C77.1094 43.3625 77.0722 43.3614 77.0335 43.3534L75.9785 43.2779C75.5268 43.2481 75.0625 43.3348 74.6508 43.5307L61.6015 51.9373C61.3643 52.0542 61.3053 52.2489 61.3198 52.3977C61.3266 52.4127 61.4211 52.6524 61.594 53.0286C61.898 53.71 62.189 54.2654 62.2961 54.4089ZM90.0102 64.4443C89.7347 64.4443 89.4578 64.4057 89.1872 64.327C89.0549 64.2947 88.9084 64.2416 88.752 64.1675L62.0653 54.9158C61.9607 54.8651 61.774 54.7695 61.1006 53.262C60.8974 52.8193 60.7886 52.5467 60.7791 52.4547C60.738 52.0282 60.9591 51.6355 61.3404 51.4511L74.3912 43.0436C74.9162 42.7913 75.468 42.6877 76.0153 42.7235L77.1804 42.8071L106.197 44.9518C106.54 44.9742 106.825 45.2013 106.94 45.5446L107.093 46.0137L107.456 48.0464C107.558 48.3344 107.473 48.6855 107.221 48.9217L92.0734 63.6224C91.5077 64.1569 90.7636 64.4443 90.0102 64.4443Z" fill="#3E4445"/>
<path d="M110.868 14.4576L79.6028 23.9179C78.9685 24.1099 78.4926 24.6488 78.3708 25.3137L75.5029 40.9533C75.3089 42.0113 76.0592 43.006 77.109 43.0829L105.939 45.1941C106.557 45.2392 107.111 44.8028 107.225 44.1793L112.414 15.8843C112.582 14.9674 111.743 14.193 110.868 14.4576Z" fill="#F7F4F4"/>
<path d="M110.945 14.7241L79.6796 24.1843C79.1406 24.3474 78.7415 24.7999 78.6374 25.365L75.7697 41.0045C75.6917 41.4312 75.7953 41.8724 76.0542 42.2162C76.3136 42.5599 76.7053 42.775 77.1287 42.8058L105.958 44.917C106.433 44.9554 106.87 44.6131 106.958 44.128L112.147 15.833C112.208 15.4985 112.097 15.1622 111.85 14.9341C111.602 14.706 111.264 14.6281 110.945 14.7241ZM106.027 45.4751C105.991 45.4751 105.956 45.4736 105.919 45.4709L77.0895 43.3599C76.5121 43.3179 75.9779 43.0246 75.6244 42.5557C75.2705 42.0866 75.1287 41.484 75.2358 40.902L78.1036 25.2624C78.2452 24.4914 78.7897 23.8739 79.5256 23.6513L110.791 14.1913C111.291 14.0402 111.825 14.1626 112.214 14.5218C112.603 14.8805 112.777 15.4093 112.68 15.9356L107.492 44.2305C107.359 44.9568 106.739 45.4751 106.027 45.4751Z" fill="#3E4445"/>
<path d="M77.1038 39.9528L79.6062 26.3073C79.6947 25.8254 80.0395 25.4346 80.4993 25.2955L109.007 16.6695C109.667 16.4698 110.3 17.0539 110.173 17.7454L105.676 42.0691C105.589 42.5392 105.172 42.8684 104.705 42.8342L78.2683 41.4966C77.5073 41.4409 76.9633 40.7199 77.1038 39.9528Z" fill="#3E4445"/>
<path d="M61.4546 51.7036L74.5347 43.2774C74.9924 43.0594 75.4967 42.9646 76.0002 43.0014L105.873 45.189C106.372 45.2257 106.592 45.8494 106.232 46.2037L91.3557 60.8247C90.5529 61.6137 89.3653 61.8321 88.3443 61.3789L61.4715 53.0252C60.9108 52.7764 60.9005 51.9674 61.4546 51.7036Z" fill="#F7F4F4"/>
<path d="M75.7889 43.2719C75.3968 43.2719 75.0062 43.3599 74.649 43.5293L61.5691 51.9555C61.4085 52.0319 61.3142 52.1856 61.3163 52.3664C61.3189 52.5472 61.4172 52.6985 61.5796 52.7705L88.4235 61.1132C89.3765 61.5346 90.4415 61.3381 91.1672 60.6249L106.044 46.0039C106.177 45.873 106.135 45.7165 106.119 45.6717C106.104 45.6268 106.037 45.4799 105.854 45.4664L75.9806 43.2786C75.9168 43.274 75.8531 43.2719 75.7889 43.2719ZM89.4454 61.8916C89.0378 61.8916 88.6265 61.8072 88.2359 61.6337L61.3922 53.2913C61.0042 53.121 60.7783 52.7737 60.7735 52.3738C60.7682 51.9802 60.9782 51.6319 61.3227 51.4601L74.3896 43.0427C74.9187 42.7882 75.4728 42.6842 76.0198 42.7247L105.892 44.9123C106.232 44.937 106.514 45.1554 106.63 45.4822C106.746 45.8095 106.666 46.1628 106.42 46.4042L91.5443 61.0254C90.9663 61.5928 90.212 61.8916 89.4454 61.8916Z" fill="#3E4445"/>
<path d="M71.4623 54.3995L72.7816 53.4719C72.8654 53.4128 72.9694 53.3921 73.0689 53.4143L79.0292 54.7479C79.3205 54.8131 79.4192 55.1872 79.1992 55.3934L77.7988 56.7055C77.7045 56.7939 77.572 56.826 77.4491 56.7899L71.5699 55.0718C71.2704 54.9842 71.2058 54.5799 71.4623 54.3995Z" fill="#3E4445"/>
<path d="M65.797 50.6104L74.7388 44.6817C75.0046 44.5553 75.2974 44.5002 75.5896 44.5216L102.104 46.4631C102.284 46.4764 102.364 46.7013 102.234 46.8292L92.7177 56.1124C92.0947 56.725 91.1786 56.9079 90.3757 56.5802L65.8005 50.8073C65.7163 50.7708 65.7145 50.6499 65.797 50.6104Z" fill="#F7F4F4"/>
<path d="M66.2605 50.6342L90.4365 56.3092C91.178 56.608 91.9844 56.4472 92.5294 55.9121L101.942 46.7298L75.5698 44.7986C75.3287 44.7813 75.0774 44.8273 74.8535 44.9334L66.2605 50.6342ZM91.1898 57.0178C90.8815 57.0178 90.5709 56.9592 90.2748 56.838L65.7394 51.0778C65.5574 51.0035 65.467 50.8667 65.4645 50.7146C65.4625 50.5711 65.5382 50.4384 65.6604 50.37L74.5906 44.4485C74.9315 44.2835 75.2693 44.2175 75.6092 44.2447L102.124 46.186C102.315 46.2001 102.475 46.324 102.541 46.5091C102.606 46.6937 102.56 46.8931 102.422 47.0294L92.9052 56.3135C92.4372 56.7737 91.8179 57.0178 91.1898 57.0178Z" fill="#3E4445"/>
<path d="M88.2301 56.2395L87.8661 55.8272L98.5136 46.0072L98.8779 46.4197L88.2301 56.2395Z" fill="#3E4445"/>
<path d="M84.3968 55.3635L84.0444 54.9411L94.6294 45.7172L94.9819 46.1399L84.3968 55.3635Z" fill="#3E4445"/>
<path d="M80.6423 54.4409L80.3016 54.0079L90.7445 45.4154L91.0852 45.8484L80.6423 54.4409Z" fill="#3E4445"/>
<path d="M76.881 53.5481L76.5521 53.1054L86.8197 45.1345L87.1488 45.5772L76.881 53.5481Z" fill="#3E4445"/>
<path d="M73.0869 52.7012L72.7705 52.2492L82.8918 44.8419L83.208 45.2939L73.0869 52.7012Z" fill="#3E4445"/>
<path d="M69.2624 51.8923L68.9588 51.4317L78.9468 44.5484L79.2504 45.009L69.2624 51.8923Z" fill="#3E4445"/>
<path d="M94.4744 54.6226L67.8759 49.4717L67.9768 48.9258L94.5751 54.0767L94.4744 54.6226Z" fill="#3E4445"/>
<path d="M97.1761 51.9993L70.2468 47.9087L70.3264 47.359L97.2556 51.4496L97.1761 51.9993Z" fill="#3E4445"/>
<path d="M99.8978 49.355L72.6279 46.3381L72.6863 45.7857L99.956 48.8028L99.8978 49.355Z" fill="#3E4445"/>
<path d="M96.6122 57.7671L94.6442 59.7097V59.194L96.6122 57.2514V57.7671Z" fill="#3E4445"/>
<path d="M98.9537 55.4427L96.9856 57.3853V56.8697L98.9537 54.9269V55.4427Z" fill="#3E4445"/>
<path d="M101.295 53.1182L99.3267 55.061V54.5455L101.295 52.6025V53.1182Z" fill="#3E4445"/>
<path d="M106.2 48.025C106.182 48.0811 106.165 48.1377 106.139 48.1902C106.13 48.2105 106.11 48.224 106.099 48.2432C106.1 48.1691 106.09 48.0961 106.058 48.0347C106.02 47.9648 105.966 47.9229 105.906 47.9037C105.949 47.8802 105.996 47.861 106.045 47.8606C106.082 47.8602 106.119 47.8735 106.149 47.8963C106.057 47.7488 105.882 47.7207 105.743 47.8574C105.721 47.8796 105.683 47.9404 105.678 47.9404C105.58 48.0904 105.558 48.2959 105.634 48.4348C105.716 48.5848 105.873 48.6238 106.009 48.535L106.015 48.5293C106.031 48.5181 106.047 48.5015 106.064 48.4848C106.182 48.3723 106.232 48.1845 106.2 48.025Z" fill="#3E4445"/>
<path d="M93.5869 20.5106C93.5869 20.6319 93.4907 20.7305 93.3718 20.7305C93.2532 20.7305 93.1568 20.6319 93.1568 20.5106C93.1568 20.389 93.2532 20.2907 93.3718 20.2907C93.4907 20.2907 93.5869 20.389 93.5869 20.5106Z" fill="#231F20"/>
<path d="M82.1085 43.8997L79.1724 43.6862C78.9294 43.6684 78.7463 43.4526 78.7634 43.2038C78.7808 42.9552 78.9919 42.7678 79.2352 42.7856L82.1713 42.9991C82.4144 43.0168 82.5976 43.2329 82.5803 43.4815C82.5629 43.7303 82.3518 43.9174 82.1085 43.8997Z" fill="#F7F4F4"/>
<path d="M82.1277 43.6229C82.2284 43.6274 82.3027 43.5573 82.3093 43.4615C82.3161 43.3665 82.2455 43.283 82.152 43.2762L79.216 43.0627C79.1072 43.0572 79.0414 43.1287 79.0344 43.2241C79.0276 43.3191 79.0981 43.4024 79.1914 43.4092L82.1277 43.6229ZM82.1403 44.179C82.1234 44.179 82.1064 44.1783 82.0893 44.1768L79.1534 43.9631C78.7611 43.935 78.4652 43.5856 78.4923 43.1849C78.5201 42.7829 78.8587 42.4727 79.2541 42.5088L82.1902 42.7221C82.5825 42.7504 82.8784 43.0998 82.8516 43.5008C82.8244 43.885 82.5103 44.179 82.1403 44.179Z" fill="#3E4445"/>
<path d="M100.445 45.2342L97.5093 45.0206C97.266 45.0029 97.0828 44.7868 97.1001 44.5383C97.1175 44.2895 97.3288 44.1023 97.5721 44.12L100.508 44.3336C100.751 44.3513 100.934 44.5672 100.917 44.816C100.9 45.0645 100.688 45.2519 100.445 45.2342Z" fill="#F7F4F4"/>
<path d="M100.464 44.9569C100.576 44.9615 100.64 44.8913 100.646 44.7957C100.653 44.7007 100.582 44.6171 100.489 44.6104L97.5526 44.3966C97.4544 44.3914 97.3777 44.4625 97.3713 44.5581C97.3644 44.653 97.4348 44.7366 97.5283 44.7433L100.464 44.9569ZM100.477 45.5127C100.46 45.5127 100.443 45.5123 100.426 45.511L97.4901 45.2975C97.098 45.2692 96.8017 44.9197 96.8289 44.5186C96.8576 44.117 97.1977 43.8073 97.5908 43.8425L100.527 44.0563C100.919 44.0845 101.215 44.4342 101.188 44.8351C101.161 45.219 100.847 45.5127 100.477 45.5127Z" fill="#3E4445"/>
<path d="M89.2618 64.0596C89.126 64.0264 88.9956 63.9762 88.8652 63.9152L62.1521 54.6525C62.0326 54.5915 61.7957 54.2681 61.513 53.6346C61.5947 53.5567 61.513 53.6346 61.513 53.6346L88.2228 62.2613C88.7432 62.4295 89.1202 62.8924 89.1875 63.4466L89.2618 64.0596Z" fill="#3E4445"/>
<path d="M109.096 57.3458C109.846 55.8864 109.04 53.722 107.044 51.2118C108.418 53.1546 108.933 54.7956 108.361 55.9096C106.588 59.3586 94.9367 56.6635 82.3382 49.89C69.7397 43.1166 60.9641 34.8296 62.7375 31.3806C63.733 29.4447 69.0059 29.8649 75.0591 31.503C67.8749 29.25 62.4356 29.1021 61.1638 31.5756C59.1588 35.4749 68.2632 44.4051 81.4996 51.5213C94.7357 58.6376 107.091 61.2453 109.096 57.3458Z" fill="#F1FAEE"/>
<path d="M109.096 58.0531C109.846 56.5935 109.04 54.4291 107.044 51.9189C108.418 53.8619 108.933 55.503 108.361 56.6169C106.588 60.0657 94.9367 57.3707 82.3382 50.5973C69.7397 43.8237 60.9641 35.5367 62.7375 32.0879C63.733 30.1521 69.0059 30.572 75.0591 32.2103C67.8749 29.9573 62.4356 29.8094 61.1638 32.2829C59.1588 36.1822 68.2632 45.1122 81.4996 52.2284C94.7357 59.3447 107.091 61.9526 109.096 58.0531Z" fill="#1D3557"/>
<path d="M60.3089 35.4049C60.9078 36.3294 61.4841 37.2344 62.098 38.1076C62.7087 38.982 63.3484 39.8261 64.0226 40.6408C64.6967 41.4553 65.4039 42.2411 66.1454 43.0025C66.8852 43.7668 67.6615 44.4988 68.4525 45.2578C67.4465 44.8396 66.5148 44.253 65.6516 43.5767C64.79 42.8974 63.9994 42.1204 63.2964 41.2684C62.5931 40.4165 61.9757 39.4901 61.4641 38.5083C60.956 37.5254 60.5456 36.4887 60.3089 35.4049Z" fill="#1D3557"/>
<path d="M109.785 58.1365C109.806 58.6931 109.578 59.2694 109.214 59.721C108.853 60.1804 108.35 60.5262 107.823 60.7533C106.747 61.204 105.637 61.2783 104.55 61.3021C103.458 61.307 102.375 61.1831 101.319 60.9695C100.262 60.7549 99.2286 60.4608 98.217 60.07C99.2994 60.0622 100.362 60.1483 101.415 60.2112C102.467 60.2806 103.51 60.3329 104.545 60.33C105.577 60.311 106.629 60.2947 107.574 60.035C108.505 59.7798 109.41 59.1877 109.785 58.1365Z" fill="#1D3557"/>
</svg>
